<svg width="1241" height="806" viewBox="0 0 1241 806" fill="none" xmlns="http://www.w3.org/2000/svg">
<path d="M22.084 16.7441V777.151H1230.07M1230.07 777.151L1188.12 755.396M1230.07 777.151L1188.12 800.979" stroke="black" stroke-width="9.58722"/>
<path d="M4.82715 53.1755L22.5986 12.9092L39.3411 53.1755" stroke="black" stroke-width="9.58722"/>
<rect x="22.084" y="724.281" width="132.304" height="49.8535" fill="black"/>
<rect x="534.042" y="668.675" width="126.551" height="109.294" fill="black"/>
<rect x="280.939" y="613.069" width="126.551" height="161.065" fill="black"/>
<rect x="1040.25" y="551.711" width="126.551" height="222.423" fill="black"/>
<path d="M152.47 455.838V775.093" stroke="white" stroke-width="3.83489"/>
<path d="M282.856 455.838V775.093" stroke="white" stroke-width="3.83489"/>
<path d="M405.573 453.921V773.176" stroke="white" stroke-width="3.83489"/>
<path d="M535.959 453.921V773.176" stroke="white" stroke-width="3.83489"/>
<path d="M658.675 453.921V773.176" stroke="white" stroke-width="3.83489"/>
<rect x="154.388" y="453.921" width="126.551" height="320.213" fill="black"/>
<rect x="660.593" y="377.224" width="126.551" height="396.911" fill="black"/>
<rect x="787.144" y="252.59" width="126.551" height="521.545" fill="black"/>
<rect x="407.49" y="124.121" width="126.551" height="655.766" fill="black"/>
<rect x="913.695" y="122.204" width="126.551" height="651.931" fill="black"/>
<path d="M785.227 363.801V774.134" stroke="white" stroke-width="3.83489"/>
<path d="M911.778 235.333L913.695 774.134" stroke="white" stroke-width="3.83489"/>
<path d="M1040.25 118.369L1042.16 774.134" stroke="white" stroke-width="3.83489"/>
<line x1="537.876" y1="673.468" x2="520.619" y2="673.468" stroke="white" stroke-width="5.75233"/>
<line x1="511.032" y1="673.468" x2="493.775" y2="673.468" stroke="white" stroke-width="5.75233"/>
<line x1="484.188" y1="673.468" x2="466.931" y2="673.468" stroke="white" stroke-width="5.75233"/>
<line x1="457.344" y1="673.468" x2="440.087" y2="673.468" stroke="white" stroke-width="5.75233"/>
<line x1="1042.16" y1="556.505" x2="1024.91" y2="556.505" stroke="white" stroke-width="5.75233"/>
<line x1="1015.32" y1="556.505" x2="998.062" y2="556.505" stroke="white" stroke-width="5.75233"/>
<line x1="988.476" y1="556.505" x2="971.219" y2="556.505" stroke="white" stroke-width="5.75233"/>
<line x1="961.631" y1="556.505" x2="944.374" y2="556.505" stroke="white" stroke-width="5.75233"/>
<line x1="934.787" y1="556.505" x2="917.53" y2="556.505" stroke="white" stroke-width="5.75233"/>
<line x1="907.943" y1="556.505" x2="890.686" y2="556.505" stroke="white" stroke-width="5.75233"/>
<line x1="881.099" y1="556.505" x2="863.842" y2="556.505" stroke="white" stroke-width="5.75233"/>
<line x1="854.254" y1="556.505" x2="836.997" y2="556.505" stroke="white" stroke-width="5.75233"/>
<line x1="827.41" y1="556.505" x2="810.153" y2="556.505" stroke="white" stroke-width="5.75233"/>
<line x1="800.566" y1="556.505" x2="783.309" y2="556.505" stroke="white" stroke-width="5.75233"/>
<line x1="773.722" y1="556.505" x2="756.465" y2="556.505" stroke="white" stroke-width="5.75233"/>
<line x1="746.877" y1="556.505" x2="729.62" y2="556.505" stroke="white" stroke-width="5.75233"/>
<line x1="718.116" y1="556.505" x2="700.859" y2="556.505" stroke="white" stroke-width="5.75233"/>
<line x1="691.271" y1="556.505" x2="674.014" y2="556.505" stroke="white" stroke-width="5.75233"/>
<line x1="637.583" y1="556.505" x2="620.326" y2="556.505" stroke="black" stroke-width="5.75233"/>
<line x1="610.739" y1="556.505" x2="593.482" y2="556.505" stroke="black" stroke-width="5.75233"/>
<line x1="583.895" y1="556.505" x2="566.638" y2="556.505" stroke="black" stroke-width="5.75233"/>
<line x1="557.051" y1="556.505" x2="539.794" y2="556.505" stroke="black" stroke-width="5.75233"/>
<line x1="530.207" y1="556.505" x2="512.95" y2="556.505" stroke="white" stroke-width="5.75233"/>
<line x1="503.362" y1="556.505" x2="486.105" y2="556.505" stroke="white" stroke-width="5.75233"/>
<line x1="476.518" y1="556.505" x2="459.261" y2="556.505" stroke="white" stroke-width="5.75233"/>
<line x1="449.674" y1="556.505" x2="432.417" y2="556.505" stroke="white" stroke-width="5.75233"/>
<line x1="395.985" y1="556.505" x2="378.728" y2="556.505" stroke="black" stroke-width="5.75233"/>
<line x1="369.141" y1="556.505" x2="351.884" y2="556.505" stroke="black" stroke-width="5.75233"/>
<line x1="342.297" y1="556.505" x2="325.04" y2="556.505" stroke="black" stroke-width="5.75233"/>
<line x1="315.453" y1="556.505" x2="298.196" y2="556.505" stroke="black" stroke-width="5.75233"/>
<line x1="261.764" y1="556.505" x2="244.507" y2="556.505" stroke="white" stroke-width="5.75233"/>
<line x1="234.92" y1="556.505" x2="217.663" y2="556.505" stroke="white" stroke-width="5.75233"/>
<line x1="208.076" y1="556.505" x2="190.819" y2="556.505" stroke="white" stroke-width="5.75233"/>
<line x1="181.232" y1="556.505" x2="163.975" y2="556.505" stroke="white" stroke-width="5.75233"/>
<line x1="154.388" y1="556.505" x2="137.131" y2="556.505" stroke="black" stroke-width="5.75233"/>
<line x1="127.543" y1="556.505" x2="110.286" y2="556.505" stroke="black" stroke-width="5.75233"/>
<line x1="154.388" y1="458.715" x2="137.131" y2="458.715" stroke="black" stroke-width="5.75233"/>
<line x1="127.543" y1="458.715" x2="110.286" y2="458.715" stroke="black" stroke-width="5.75233"/>
<line x1="100.699" y1="458.715" x2="83.4422" y2="458.715" stroke="black" stroke-width="5.75233"/>
<line x1="73.855" y1="458.715" x2="56.598" y2="458.715" stroke="black" stroke-width="5.75233"/>
<line x1="47.0107" y1="458.715" x2="29.7538" y2="458.715" stroke="black" stroke-width="5.75233"/>
<line x1="660.593" y1="382.017" x2="643.336" y2="382.017" stroke="black" stroke-width="5.75233"/>
<line x1="633.749" y1="382.017" x2="616.492" y2="382.017" stroke="black" stroke-width="5.75233"/>
<line x1="606.904" y1="382.017" x2="589.647" y2="382.017" stroke="black" stroke-width="5.75233"/>
<line x1="580.06" y1="382.017" x2="562.803" y2="382.017" stroke="black" stroke-width="5.75233"/>
<line x1="553.216" y1="382.017" x2="535.959" y2="382.017" stroke="black" stroke-width="5.75233"/>
<line x1="526.372" y1="382.017" x2="509.115" y2="382.017" stroke="white" stroke-width="5.75233"/>
<line x1="499.527" y1="382.017" x2="482.27" y2="382.017" stroke="white" stroke-width="5.75233"/>
<line x1="472.683" y1="382.017" x2="455.426" y2="382.017" stroke="white" stroke-width="5.75233"/>
<line x1="445.839" y1="382.017" x2="428.582" y2="382.017" stroke="white" stroke-width="5.75233"/>
<line x1="392.15" y1="382.017" x2="374.893" y2="382.017" stroke="black" stroke-width="5.75233"/>
<line x1="365.306" y1="382.017" x2="348.049" y2="382.017" stroke="black" stroke-width="5.75233"/>
<line x1="338.462" y1="382.017" x2="321.205" y2="382.017" stroke="black" stroke-width="5.75233"/>
<line x1="311.618" y1="382.017" x2="294.361" y2="382.017" stroke="black" stroke-width="5.75233"/>
<line x1="284.773" y1="382.017" x2="267.516" y2="382.017" stroke="black" stroke-width="5.75233"/>
<line x1="257.93" y1="382.017" x2="240.673" y2="382.017" stroke="black" stroke-width="5.75233"/>
<line x1="231.085" y1="382.017" x2="213.828" y2="382.017" stroke="black" stroke-width="5.75233"/>
<line x1="204.241" y1="382.017" x2="186.984" y2="382.017" stroke="black" stroke-width="5.75233"/>
<line x1="177.397" y1="382.017" x2="160.14" y2="382.017" stroke="black" stroke-width="5.75233"/>
<line x1="150.553" y1="382.017" x2="133.296" y2="382.017" stroke="black" stroke-width="5.75233"/>
<line x1="123.708" y1="382.017" x2="106.452" y2="382.017" stroke="black" stroke-width="5.75233"/>
<line x1="96.8643" y1="382.017" x2="79.6073" y2="382.017" stroke="black" stroke-width="5.75233"/>
<line x1="70.02" y1="382.017" x2="52.763" y2="382.017" stroke="black" stroke-width="5.75233"/>
<line x1="43.1758" y1="382.017" x2="25.9188" y2="382.017" stroke="black" stroke-width="5.75233"/>
<line x1="787.144" y1="257.383" x2="769.887" y2="257.383" stroke="black" stroke-width="5.75233"/>
<line x1="760.3" y1="257.383" x2="743.043" y2="257.383" stroke="black" stroke-width="5.75233"/>
<line x1="733.456" y1="257.383" x2="716.199" y2="257.383" stroke="black" stroke-width="5.75233"/>
<line x1="706.611" y1="257.383" x2="689.354" y2="257.383" stroke="black" stroke-width="5.75233"/>
<line x1="679.767" y1="257.383" x2="662.51" y2="257.383" stroke="black" stroke-width="5.75233"/>
<line x1="652.923" y1="257.383" x2="635.666" y2="257.383" stroke="black" stroke-width="5.75233"/>
<line x1="626.079" y1="257.383" x2="608.822" y2="257.383" stroke="black" stroke-width="5.75233"/>
<line x1="599.234" y1="257.383" x2="581.977" y2="257.383" stroke="black" stroke-width="5.75233"/>
<line x1="572.39" y1="257.383" x2="555.133" y2="257.383" stroke="black" stroke-width="5.75233"/>
<line x1="516.784" y1="257.383" x2="499.527" y2="257.383" stroke="white" stroke-width="5.75233"/>
<line x1="489.94" y1="257.383" x2="472.683" y2="257.383" stroke="white" stroke-width="5.75233"/>
<line x1="463.096" y1="257.383" x2="445.839" y2="257.383" stroke="white" stroke-width="5.75233"/>
<line x1="436.252" y1="257.383" x2="418.995" y2="257.383" stroke="white" stroke-width="5.75233"/>
<line x1="384.48" y1="257.383" x2="367.223" y2="257.383" stroke="black" stroke-width="5.75233"/>
<line x1="357.637" y1="257.383" x2="340.38" y2="257.383" stroke="black" stroke-width="5.75233"/>
<line x1="330.792" y1="257.383" x2="313.535" y2="257.383" stroke="black" stroke-width="5.75233"/>
<line x1="303.948" y1="257.383" x2="286.691" y2="257.383" stroke="black" stroke-width="5.75233"/>
<line x1="277.104" y1="257.383" x2="259.847" y2="257.383" stroke="black" stroke-width="5.75233"/>
<line x1="250.26" y1="257.383" x2="233.003" y2="257.383" stroke="black" stroke-width="5.75233"/>
<line x1="223.416" y1="257.383" x2="206.159" y2="257.383" stroke="black" stroke-width="5.75233"/>
<line x1="196.571" y1="257.383" x2="179.314" y2="257.383" stroke="black" stroke-width="5.75233"/>
<line x1="169.727" y1="257.383" x2="152.47" y2="257.383" stroke="black" stroke-width="5.75233"/>
<line x1="142.883" y1="257.383" x2="125.626" y2="257.383" stroke="black" stroke-width="5.75233"/>
<line x1="116.039" y1="257.383" x2="98.7816" y2="257.383" stroke="black" stroke-width="5.75233"/>
<line x1="89.1943" y1="257.383" x2="71.9373" y2="257.383" stroke="black" stroke-width="5.75233"/>
<line x1="62.3501" y1="257.383" x2="45.0931" y2="257.383" stroke="black" stroke-width="5.75233"/>
<line x1="35.5059" y1="257.383" x2="18.2489" y2="257.383" stroke="black" stroke-width="5.75233"/>
<line x1="913.695" y1="126.997" x2="896.438" y2="126.997" stroke="black" stroke-width="5.75233"/>
<line x1="886.851" y1="126.997" x2="869.594" y2="126.997" stroke="black" stroke-width="5.75233"/>
<line x1="860.007" y1="126.997" x2="842.75" y2="126.997" stroke="black" stroke-width="5.75233"/>
<line x1="833.163" y1="126.997" x2="815.906" y2="126.997" stroke="black" stroke-width="5.75233"/>
<line x1="806.318" y1="126.997" x2="789.061" y2="126.997" stroke="black" stroke-width="5.75233"/>
<line x1="779.474" y1="126.997" x2="762.217" y2="126.997" stroke="black" stroke-width="5.75233"/>
<line x1="752.63" y1="126.997" x2="735.373" y2="126.997" stroke="black" stroke-width="5.75233"/>
<line x1="725.786" y1="126.997" x2="708.529" y2="126.997" stroke="black" stroke-width="5.75233"/>
<line x1="698.941" y1="126.997" x2="681.684" y2="126.997" stroke="black" stroke-width="5.75233"/>
<line x1="672.097" y1="126.997" x2="654.84" y2="126.997" stroke="black" stroke-width="5.75233"/>
<line x1="645.253" y1="126.997" x2="627.996" y2="126.997" stroke="black" stroke-width="5.75233"/>
<line x1="618.409" y1="126.997" x2="601.152" y2="126.997" stroke="black" stroke-width="5.75233"/>
<line x1="591.564" y1="126.997" x2="574.307" y2="126.997" stroke="black" stroke-width="5.75233"/>
<line x1="564.72" y1="126.997" x2="547.463" y2="126.997" stroke="black" stroke-width="5.75233"/>
<line x1="403.655" y1="126.997" x2="386.398" y2="126.997" stroke="black" stroke-width="5.75233"/>
<line x1="376.811" y1="126.997" x2="359.554" y2="126.997" stroke="black" stroke-width="5.75233"/>
<line x1="349.967" y1="126.997" x2="332.71" y2="126.997" stroke="black" stroke-width="5.75233"/>
<line x1="323.123" y1="126.997" x2="305.866" y2="126.997" stroke="black" stroke-width="5.75233"/>
<line x1="296.278" y1="126.997" x2="279.021" y2="126.997" stroke="black" stroke-width="5.75233"/>
<line x1="269.434" y1="126.997" x2="252.177" y2="126.997" stroke="black" stroke-width="5.75233"/>
<line x1="242.59" y1="126.997" x2="225.333" y2="126.997" stroke="black" stroke-width="5.75233"/>
<line x1="215.746" y1="126.997" x2="198.489" y2="126.997" stroke="black" stroke-width="5.75233"/>
<line x1="188.901" y1="126.997" x2="171.644" y2="126.997" stroke="black" stroke-width="5.75233"/>
<line x1="162.057" y1="126.997" x2="144.8" y2="126.997" stroke="black" stroke-width="5.75233"/>
<line x1="135.213" y1="126.997" x2="117.956" y2="126.997" stroke="black" stroke-width="5.75233"/>
<line x1="108.369" y1="126.997" x2="91.1117" y2="126.997" stroke="black" stroke-width="5.75233"/>
<line x1="81.5244" y1="126.997" x2="64.2674" y2="126.997" stroke="black" stroke-width="5.75233"/>
<line x1="54.6807" y1="126.997" x2="37.4237" y2="126.997" stroke="black" stroke-width="5.75233"/>
<line x1="537.876" y1="126.997" x2="520.619" y2="126.997" stroke="black" stroke-width="5.75233"/>
<line x1="409.408" y1="257.383" x2="392.151" y2="257.383" stroke="white" stroke-width="5.75233"/>
<line x1="407.49" y1="257.383" x2="392.151" y2="257.383" stroke="black" stroke-width="5.75233"/>
<line x1="545.546" y1="257.383" x2="528.289" y2="257.383" stroke="black" stroke-width="5.75233"/>
<line x1="534.041" y1="257.383" x2="528.289" y2="257.383" stroke="white" stroke-width="5.75233"/>
<line x1="418.995" y1="382.017" x2="401.738" y2="382.017" stroke="white" stroke-width="5.75233"/>
<line x1="407.49" y1="382.017" x2="401.738" y2="382.017" stroke="black" stroke-width="5.75233"/>
<line x1="100.699" y1="556.505" x2="83.4422" y2="556.505" stroke="black" stroke-width="5.75233"/>
<line x1="73.855" y1="556.505" x2="56.598" y2="556.505" stroke="black" stroke-width="5.75233"/>
<line x1="47.0107" y1="556.505" x2="29.7538" y2="556.505" stroke="black" stroke-width="5.75233"/>
<line x1="288.608" y1="556.505" x2="271.351" y2="556.505" stroke="black" stroke-width="5.75233"/>
<line x1="280.939" y1="556.505" x2="271.352" y2="556.505" stroke="white" stroke-width="5.75233"/>
<line x1="422.83" y1="556.505" x2="405.573" y2="556.505" stroke="white" stroke-width="5.75233"/>
<line x1="407.49" y1="556.505" x2="405.573" y2="556.505" stroke="black" stroke-width="5.75233"/>
<line x1="664.427" y1="556.505" x2="647.17" y2="556.505" stroke="white" stroke-width="5.75233"/>
<line x1="660.593" y1="556.505" x2="647.171" y2="556.505" stroke="black" stroke-width="5.75233"/>
<line x1="430.5" y1="673.468" x2="413.243" y2="673.468" stroke="white" stroke-width="5.75233"/>
<line x1="403.655" y1="673.468" x2="386.398" y2="673.468" stroke="white" stroke-width="5.75233"/>
<line x1="376.811" y1="673.468" x2="359.554" y2="673.468" stroke="white" stroke-width="5.75233"/>
<line x1="349.967" y1="673.468" x2="332.71" y2="673.468" stroke="white" stroke-width="5.75233"/>
<line x1="323.123" y1="673.468" x2="305.866" y2="673.468" stroke="white" stroke-width="5.75233"/>
<line x1="296.278" y1="673.468" x2="279.021" y2="673.468" stroke="white" stroke-width="5.75233"/>
<line x1="269.434" y1="673.468" x2="252.177" y2="673.468" stroke="white" stroke-width="5.75233"/>
<line x1="242.59" y1="673.468" x2="225.333" y2="673.468" stroke="white" stroke-width="5.75233"/>
<line x1="282.856" y1="617.863" x2="265.599" y2="617.863" stroke="white" stroke-width="5.75233"/>
<line x1="256.012" y1="617.863" x2="238.755" y2="617.863" stroke="white" stroke-width="5.75233"/>
<line x1="229.168" y1="617.863" x2="211.911" y2="617.863" stroke="white" stroke-width="5.75233"/>
<line x1="202.324" y1="617.863" x2="185.067" y2="617.863" stroke="white" stroke-width="5.75233"/>
<line x1="175.479" y1="617.863" x2="158.223" y2="617.863" stroke="white" stroke-width="5.75233"/>
<line x1="148.635" y1="617.863" x2="131.378" y2="617.863" stroke="black" stroke-width="5.75233"/>
<line x1="121.791" y1="617.863" x2="104.534" y2="617.863" stroke="black" stroke-width="5.75233"/>
<line x1="94.9468" y1="617.863" x2="77.6898" y2="617.863" stroke="black" stroke-width="5.75233"/>
<line x1="68.1025" y1="617.863" x2="50.8456" y2="617.863" stroke="black" stroke-width="5.75233"/>
<line x1="41.2583" y1="617.863" x2="24.0013" y2="617.863" stroke="black" stroke-width="5.75233"/>
<line x1="215.746" y1="673.468" x2="198.489" y2="673.468" stroke="white" stroke-width="5.75233"/>
<line x1="188.901" y1="673.468" x2="171.644" y2="673.468" stroke="white" stroke-width="5.75233"/>
<line x1="135.213" y1="673.468" x2="117.956" y2="673.468" stroke="black" stroke-width="5.75233"/>
<line x1="108.369" y1="673.468" x2="91.1117" y2="673.468" stroke="black" stroke-width="5.75233"/>
<line x1="81.5244" y1="673.468" x2="64.2674" y2="673.468" stroke="black" stroke-width="5.75233"/>
<line x1="54.6807" y1="673.468" x2="37.4237" y2="673.468" stroke="black" stroke-width="5.75233"/>
<line x1="162.057" y1="673.468" x2="144.8" y2="673.468" stroke="white" stroke-width="5.75233"/>
<line x1="154.388" y1="673.468" x2="144.8" y2="673.468" stroke="black" stroke-width="5.75233"/>
<path d="M26.8774 730.033L82.4833 778.928L215.746 455.839L343.256 614.028L469.807 125.08L597.317 673.468L724.827 376.265L852.337 252.59L971.218 125.08L1107.36 553.628" stroke="white" stroke-width="5.75233"/>
<path d="M104.534 724.281L154.388 605.399" stroke="black" stroke-width="5.75233"/>
<path d="M280.939 536.372L348.049 620.739" stroke="black" stroke-width="5.75233"/>
<path d="M409.407 359.967L344.214 614.987" stroke="black" stroke-width="5.75233"/>
<path d="M597.317 678.262L532.124 394.48" stroke="black" stroke-width="5.75233"/>
<path d="M724.192 377.909L595.4 684.014" stroke="black" stroke-width="5.75233"/>
<path d="M914 186L819.969 285.402L723 379" stroke="black" stroke-width="5.75233"/>
<path d="M1036.41 333.123L1109.27 555.546" stroke="black" stroke-width="5.75233"/>
<path d="M724.827 376.265L659.634 527.743" stroke="white" stroke-width="5.75233"/>
<path d="M787.144 315.865L852.337 252.59" stroke="white" stroke-width="5.75233"/>
</svg>
