<svg width="1440" height="978" viewBox="0 0 1440 978" fill="none" xmlns="http://www.w3.org/2000/svg">
<g clip-path="url(#clip0_73_625)">
<path d="M11.52 487.16C54.3687 -384.054 128.64 315.854 128.64 487.16" stroke="white" stroke-width="3.84"/>
<path d="M714.24 491C757.089 -380.214 831.36 319.694 831.36 491" stroke="white" stroke-width="3.84"/>
<path d="M948.48 487.16C991.329 -384.054 1065.6 315.854 1065.6 487.16" stroke="white" stroke-width="3.84"/>
<path d="M1182.72 491C1225.57 -380.214 1299.84 319.694 1299.84 491" stroke="white" stroke-width="3.84"/>
<path d="M245.76 491C288.608 -380.214 362.88 319.694 362.88 491" stroke="white" stroke-width="3.84"/>
<path d="M480 491C522.849 -380.214 597.12 319.694 597.12 491" stroke="white" stroke-width="3.84"/>
<path d="M245.293 487.217C187.74 1357.58 125.297 656.522 128.19 485.24" stroke="white" stroke-width="3.84"/>
<path d="M948.013 491.058C890.46 1361.42 828.017 660.362 830.909 489.08" stroke="white" stroke-width="3.84"/>
<path d="M1182.25 487.217C1124.7 1357.58 1062.26 656.522 1065.15 485.24" stroke="white" stroke-width="3.84"/>
<path d="M1416.49 491.058C1358.94 1361.42 1296.5 660.362 1299.39 489.08" stroke="white" stroke-width="3.84"/>
<path d="M479.533 491.058C421.98 1361.42 359.537 660.362 362.429 489.08" stroke="white" stroke-width="3.84"/>
<path d="M713.773 491.058C656.22 1361.42 593.777 660.362 596.67 489.08" stroke="white" stroke-width="3.84"/>
<line x1="68.1601" y1="485.24" x2="68.1601" y2="441.08" stroke="white" stroke-width="1.92"/>
<line x1="129.6" y1="485.24" x2="129.6" y2="441.08" stroke="white" stroke-width="1.92"/>
<line x1="14.3999" y1="485.24" x2="14.3999" y2="441.08" stroke="white" stroke-width="1.92"/>
<line x1="60.4799" y1="485.24" x2="60.4799" y2="460.28" stroke="white" stroke-width="1.92"/>
<line x1="121.92" y1="485.24" x2="121.92" y2="460.28" stroke="white" stroke-width="1.92"/>
<line x1="114.24" y1="485.24" x2="114.24" y2="460.28" stroke="white" stroke-width="1.92"/>
<line x1="6.72018" y1="485.24" x2="6.72018" y2="460.28" stroke="white" stroke-width="1.92"/>
<line x1="52.7998" y1="485.24" x2="52.7998" y2="460.28" stroke="white" stroke-width="1.92"/>
<line x1="106.56" y1="485.24" x2="106.56" y2="460.28" stroke="white" stroke-width="1.92"/>
<line x1="45.1201" y1="485.24" x2="45.1201" y2="460.28" stroke="white" stroke-width="1.92"/>
<line x1="98.8798" y1="485.24" x2="98.8798" y2="460.28" stroke="white" stroke-width="1.92"/>
<line x1="37.4399" y1="485.24" x2="37.4399" y2="460.28" stroke="white" stroke-width="1.92"/>
<line x1="91.2002" y1="485.24" x2="91.2002" y2="460.28" stroke="white" stroke-width="1.92"/>
<line x1="29.7602" y1="485.24" x2="29.7602" y2="460.28" stroke="white" stroke-width="1.92"/>
<line x1="83.52" y1="485.24" x2="83.52" y2="460.28" stroke="white" stroke-width="1.92"/>
<line x1="22.08" y1="485.24" x2="22.08" y2="460.28" stroke="white" stroke-width="1.92"/>
<line x1="75.8398" y1="485.24" x2="75.8398" y2="460.28" stroke="white" stroke-width="1.92"/>
<line x1="183.36" y1="485.24" x2="183.36" y2="441.08" stroke="white" stroke-width="1.92"/>
<line x1="244.8" y1="485.24" x2="244.8" y2="441.08" stroke="white" stroke-width="1.92"/>
<line x1="129.6" y1="485.24" x2="129.6" y2="441.08" stroke="white" stroke-width="1.92"/>
<line x1="175.68" y1="485.24" x2="175.68" y2="460.28" stroke="white" stroke-width="1.92"/>
<line x1="237.12" y1="485.24" x2="237.12" y2="460.28" stroke="white" stroke-width="1.92"/>
<line x1="229.44" y1="485.24" x2="229.44" y2="460.28" stroke="white" stroke-width="1.92"/>
<line x1="114.24" y1="485.24" x2="114.24" y2="460.28" stroke="white" stroke-width="1.92"/>
<line x1="121.92" y1="485.24" x2="121.92" y2="460.28" stroke="white" stroke-width="1.92"/>
<line x1="168" y1="485.24" x2="168" y2="460.28" stroke="white" stroke-width="1.92"/>
<line x1="221.76" y1="485.24" x2="221.76" y2="460.28" stroke="white" stroke-width="1.92"/>
<line x1="160.32" y1="485.24" x2="160.32" y2="460.28" stroke="white" stroke-width="1.92"/>
<line x1="214.08" y1="485.24" x2="214.08" y2="460.28" stroke="white" stroke-width="1.92"/>
<line x1="152.64" y1="485.24" x2="152.64" y2="460.28" stroke="white" stroke-width="1.92"/>
<line x1="206.4" y1="485.24" x2="206.4" y2="460.28" stroke="white" stroke-width="1.92"/>
<line x1="144.96" y1="485.24" x2="144.96" y2="460.28" stroke="white" stroke-width="1.92"/>
<line x1="198.72" y1="485.24" x2="198.72" y2="460.28" stroke="white" stroke-width="1.92"/>
<line x1="137.28" y1="485.24" x2="137.28" y2="460.28" stroke="white" stroke-width="1.92"/>
<line x1="191.04" y1="485.24" x2="191.04" y2="460.28" stroke="white" stroke-width="1.92"/>
<line x1="298.56" y1="485.24" x2="298.56" y2="441.08" stroke="white" stroke-width="1.92"/>
<line x1="360" y1="485.24" x2="360" y2="441.08" stroke="white" stroke-width="1.92"/>
<line x1="244.8" y1="485.24" x2="244.8" y2="441.08" stroke="white" stroke-width="1.92"/>
<line x1="290.88" y1="485.24" x2="290.88" y2="460.28" stroke="white" stroke-width="1.92"/>
<line x1="352.32" y1="485.24" x2="352.32" y2="460.28" stroke="white" stroke-width="1.92"/>
<line x1="344.64" y1="485.24" x2="344.64" y2="460.28" stroke="white" stroke-width="1.92"/>
<line x1="229.44" y1="485.24" x2="229.44" y2="460.28" stroke="white" stroke-width="1.92"/>
<line x1="237.12" y1="485.24" x2="237.12" y2="460.28" stroke="white" stroke-width="1.92"/>
<line x1="283.2" y1="485.24" x2="283.2" y2="460.28" stroke="white" stroke-width="1.92"/>
<line x1="336.96" y1="485.24" x2="336.96" y2="460.28" stroke="white" stroke-width="1.92"/>
<line x1="275.52" y1="485.24" x2="275.52" y2="460.28" stroke="white" stroke-width="1.92"/>
<line x1="329.28" y1="485.24" x2="329.28" y2="460.28" stroke="white" stroke-width="1.92"/>
<line x1="267.84" y1="485.24" x2="267.84" y2="460.28" stroke="white" stroke-width="1.92"/>
<line x1="321.6" y1="485.24" x2="321.6" y2="460.28" stroke="white" stroke-width="1.92"/>
<line x1="260.16" y1="485.24" x2="260.16" y2="460.28" stroke="white" stroke-width="1.92"/>
<line x1="313.92" y1="485.24" x2="313.92" y2="460.28" stroke="white" stroke-width="1.92"/>
<line x1="252.48" y1="485.24" x2="252.48" y2="460.28" stroke="white" stroke-width="1.92"/>
<line x1="306.24" y1="485.24" x2="306.24" y2="460.28" stroke="white" stroke-width="1.92"/>
<line x1="413.76" y1="485.24" x2="413.76" y2="441.08" stroke="white" stroke-width="1.92"/>
<line x1="475.2" y1="485.24" x2="475.2" y2="441.08" stroke="white" stroke-width="1.92"/>
<line x1="360" y1="485.24" x2="360" y2="441.08" stroke="white" stroke-width="1.92"/>
<line x1="406.08" y1="485.24" x2="406.08" y2="460.28" stroke="white" stroke-width="1.92"/>
<line x1="467.52" y1="485.24" x2="467.52" y2="460.28" stroke="white" stroke-width="1.92"/>
<line x1="459.84" y1="485.24" x2="459.84" y2="460.28" stroke="white" stroke-width="1.92"/>
<line x1="344.64" y1="485.24" x2="344.64" y2="460.28" stroke="white" stroke-width="1.92"/>
<line x1="352.32" y1="485.24" x2="352.32" y2="460.28" stroke="white" stroke-width="1.92"/>
<line x1="398.4" y1="485.24" x2="398.4" y2="460.28" stroke="white" stroke-width="1.92"/>
<line x1="452.16" y1="485.24" x2="452.16" y2="460.28" stroke="white" stroke-width="1.92"/>
<line x1="390.72" y1="485.24" x2="390.72" y2="460.28" stroke="white" stroke-width="1.92"/>
<line x1="444.48" y1="485.24" x2="444.48" y2="460.28" stroke="white" stroke-width="1.92"/>
<line x1="383.04" y1="485.24" x2="383.04" y2="460.28" stroke="white" stroke-width="1.92"/>
<line x1="436.8" y1="485.24" x2="436.8" y2="460.28" stroke="white" stroke-width="1.92"/>
<line x1="375.36" y1="485.24" x2="375.36" y2="460.28" stroke="white" stroke-width="1.92"/>
<line x1="429.12" y1="485.24" x2="429.12" y2="460.28" stroke="white" stroke-width="1.92"/>
<line x1="367.68" y1="485.24" x2="367.68" y2="460.28" stroke="white" stroke-width="1.92"/>
<line x1="421.44" y1="485.24" x2="421.44" y2="460.28" stroke="white" stroke-width="1.92"/>
<line x1="528.96" y1="485.24" x2="528.96" y2="441.08" stroke="white" stroke-width="1.92"/>
<line x1="590.4" y1="485.24" x2="590.4" y2="441.08" stroke="white" stroke-width="1.92"/>
<line x1="475.2" y1="485.24" x2="475.2" y2="441.08" stroke="white" stroke-width="1.92"/>
<line x1="521.28" y1="485.24" x2="521.28" y2="460.28" stroke="white" stroke-width="1.92"/>
<line x1="582.72" y1="485.24" x2="582.72" y2="460.28" stroke="white" stroke-width="1.92"/>
<line x1="575.04" y1="485.24" x2="575.04" y2="460.28" stroke="white" stroke-width="1.92"/>
<line x1="459.84" y1="485.24" x2="459.84" y2="460.28" stroke="white" stroke-width="1.92"/>
<line x1="467.52" y1="485.24" x2="467.52" y2="460.28" stroke="white" stroke-width="1.92"/>
<line x1="513.6" y1="485.24" x2="513.6" y2="460.28" stroke="white" stroke-width="1.92"/>
<line x1="567.36" y1="485.24" x2="567.36" y2="460.28" stroke="white" stroke-width="1.92"/>
<line x1="505.92" y1="485.24" x2="505.92" y2="460.28" stroke="white" stroke-width="1.92"/>
<line x1="559.68" y1="485.24" x2="559.68" y2="460.28" stroke="white" stroke-width="1.92"/>
<line x1="498.24" y1="485.24" x2="498.24" y2="460.28" stroke="white" stroke-width="1.92"/>
<line x1="552" y1="485.24" x2="552" y2="460.28" stroke="white" stroke-width="1.92"/>
<line x1="490.56" y1="485.24" x2="490.56" y2="460.28" stroke="white" stroke-width="1.92"/>
<line x1="544.32" y1="485.24" x2="544.32" y2="460.28" stroke="white" stroke-width="1.92"/>
<line x1="482.88" y1="485.24" x2="482.88" y2="460.28" stroke="white" stroke-width="1.92"/>
<line x1="536.64" y1="485.24" x2="536.64" y2="460.28" stroke="white" stroke-width="1.92"/>
<line x1="644.16" y1="485.24" x2="644.16" y2="441.08" stroke="white" stroke-width="1.92"/>
<line x1="705.6" y1="485.24" x2="705.6" y2="441.08" stroke="white" stroke-width="1.92"/>
<line x1="590.4" y1="485.24" x2="590.4" y2="441.08" stroke="white" stroke-width="1.92"/>
<line x1="636.48" y1="485.24" x2="636.48" y2="460.28" stroke="white" stroke-width="1.92"/>
<line x1="697.92" y1="485.24" x2="697.92" y2="460.28" stroke="white" stroke-width="1.92"/>
<line x1="690.24" y1="485.24" x2="690.24" y2="460.28" stroke="white" stroke-width="1.92"/>
<line x1="575.04" y1="485.24" x2="575.04" y2="460.28" stroke="white" stroke-width="1.92"/>
<line x1="582.72" y1="485.24" x2="582.72" y2="460.28" stroke="white" stroke-width="1.92"/>
<line x1="628.8" y1="485.24" x2="628.8" y2="460.28" stroke="white" stroke-width="1.92"/>
<line x1="682.56" y1="485.24" x2="682.56" y2="460.28" stroke="white" stroke-width="1.92"/>
<line x1="621.12" y1="485.24" x2="621.12" y2="460.28" stroke="white" stroke-width="1.92"/>
<line x1="674.88" y1="485.24" x2="674.88" y2="460.28" stroke="white" stroke-width="1.92"/>
<line x1="613.44" y1="485.24" x2="613.44" y2="460.28" stroke="white" stroke-width="1.92"/>
<line x1="667.2" y1="485.24" x2="667.2" y2="460.28" stroke="white" stroke-width="1.92"/>
<line x1="605.76" y1="485.24" x2="605.76" y2="460.28" stroke="white" stroke-width="1.92"/>
<line x1="659.52" y1="485.24" x2="659.52" y2="460.28" stroke="white" stroke-width="1.92"/>
<line x1="598.08" y1="485.24" x2="598.08" y2="460.28" stroke="white" stroke-width="1.92"/>
<line x1="651.84" y1="485.24" x2="651.84" y2="460.28" stroke="white" stroke-width="1.92"/>
<line x1="759.36" y1="489.081" x2="759.36" y2="444.921" stroke="white" stroke-width="1.92"/>
<line x1="820.8" y1="489.081" x2="820.8" y2="444.921" stroke="white" stroke-width="1.92"/>
<line x1="705.601" y1="489.081" x2="705.601" y2="444.921" stroke="white" stroke-width="1.92"/>
<line x1="751.68" y1="489.081" x2="751.68" y2="464.121" stroke="white" stroke-width="1.92"/>
<line x1="813.12" y1="489.081" x2="813.12" y2="464.121" stroke="white" stroke-width="1.92"/>
<line x1="805.44" y1="489.081" x2="805.44" y2="464.121" stroke="white" stroke-width="1.92"/>
<line x1="690.24" y1="489.081" x2="690.24" y2="464.121" stroke="white" stroke-width="1.92"/>
<line x1="697.92" y1="489.081" x2="697.92" y2="464.121" stroke="white" stroke-width="1.92"/>
<line x1="744" y1="489.081" x2="744" y2="464.121" stroke="white" stroke-width="1.92"/>
<line x1="797.76" y1="489.081" x2="797.76" y2="464.121" stroke="white" stroke-width="1.92"/>
<line x1="736.32" y1="489.081" x2="736.32" y2="464.121" stroke="white" stroke-width="1.92"/>
<line x1="790.081" y1="489.081" x2="790.081" y2="464.121" stroke="white" stroke-width="1.92"/>
<line x1="728.64" y1="489.081" x2="728.64" y2="464.121" stroke="white" stroke-width="1.92"/>
<line x1="782.4" y1="489.081" x2="782.4" y2="464.121" stroke="white" stroke-width="1.92"/>
<line x1="720.96" y1="489.081" x2="720.96" y2="464.121" stroke="white" stroke-width="1.92"/>
<line x1="774.72" y1="489.081" x2="774.72" y2="464.121" stroke="white" stroke-width="1.92"/>
<line x1="713.28" y1="489.081" x2="713.28" y2="464.121" stroke="white" stroke-width="1.92"/>
<line x1="767.04" y1="489.081" x2="767.04" y2="464.121" stroke="white" stroke-width="1.92"/>
<line x1="874.56" y1="489.081" x2="874.56" y2="444.921" stroke="white" stroke-width="1.92"/>
<line x1="936" y1="489.081" x2="936" y2="444.921" stroke="white" stroke-width="1.92"/>
<line x1="820.8" y1="489.081" x2="820.8" y2="444.921" stroke="white" stroke-width="1.92"/>
<line x1="866.88" y1="489.081" x2="866.88" y2="464.121" stroke="white" stroke-width="1.92"/>
<line x1="928.32" y1="489.081" x2="928.32" y2="464.121" stroke="white" stroke-width="1.92"/>
<line x1="920.64" y1="489.081" x2="920.64" y2="464.121" stroke="white" stroke-width="1.92"/>
<line x1="805.44" y1="489.081" x2="805.44" y2="464.121" stroke="white" stroke-width="1.92"/>
<line x1="813.12" y1="489.081" x2="813.12" y2="464.121" stroke="white" stroke-width="1.92"/>
<line x1="859.2" y1="489.081" x2="859.2" y2="464.121" stroke="white" stroke-width="1.92"/>
<line x1="912.96" y1="489.081" x2="912.96" y2="464.121" stroke="white" stroke-width="1.92"/>
<line x1="851.52" y1="489.081" x2="851.52" y2="464.121" stroke="white" stroke-width="1.92"/>
<line x1="905.28" y1="489.081" x2="905.28" y2="464.121" stroke="white" stroke-width="1.92"/>
<line x1="843.84" y1="489.081" x2="843.84" y2="464.121" stroke="white" stroke-width="1.92"/>
<line x1="897.6" y1="489.081" x2="897.6" y2="464.121" stroke="white" stroke-width="1.92"/>
<line x1="836.16" y1="489.081" x2="836.16" y2="464.121" stroke="white" stroke-width="1.92"/>
<line x1="889.92" y1="489.081" x2="889.92" y2="464.121" stroke="white" stroke-width="1.92"/>
<line x1="828.48" y1="489.081" x2="828.48" y2="464.121" stroke="white" stroke-width="1.92"/>
<line x1="882.24" y1="489.081" x2="882.24" y2="464.121" stroke="white" stroke-width="1.92"/>
<line x1="989.76" y1="489.081" x2="989.76" y2="444.921" stroke="white" stroke-width="1.92"/>
<line x1="1051.2" y1="489.081" x2="1051.2" y2="444.921" stroke="white" stroke-width="1.92"/>
<line x1="936" y1="489.081" x2="936" y2="444.921" stroke="white" stroke-width="1.92"/>
<line x1="982.08" y1="489.081" x2="982.08" y2="464.121" stroke="white" stroke-width="1.92"/>
<line x1="1043.52" y1="489.081" x2="1043.52" y2="464.121" stroke="white" stroke-width="1.92"/>
<line x1="1035.84" y1="489.081" x2="1035.84" y2="464.121" stroke="white" stroke-width="1.92"/>
<line x1="920.64" y1="489.081" x2="920.64" y2="464.121" stroke="white" stroke-width="1.92"/>
<line x1="928.32" y1="489.081" x2="928.32" y2="464.121" stroke="white" stroke-width="1.92"/>
<line x1="974.4" y1="489.081" x2="974.4" y2="464.121" stroke="white" stroke-width="1.92"/>
<line x1="1028.16" y1="489.081" x2="1028.16" y2="464.121" stroke="white" stroke-width="1.92"/>
<line x1="966.72" y1="489.081" x2="966.72" y2="464.121" stroke="white" stroke-width="1.92"/>
<line x1="1020.48" y1="489.081" x2="1020.48" y2="464.121" stroke="white" stroke-width="1.92"/>
<line x1="959.04" y1="489.081" x2="959.04" y2="464.121" stroke="white" stroke-width="1.92"/>
<line x1="1012.8" y1="489.081" x2="1012.8" y2="464.121" stroke="white" stroke-width="1.92"/>
<line x1="951.36" y1="489.081" x2="951.36" y2="464.121" stroke="white" stroke-width="1.92"/>
<line x1="1005.12" y1="489.081" x2="1005.12" y2="464.121" stroke="white" stroke-width="1.92"/>
<line x1="943.68" y1="489.081" x2="943.68" y2="464.121" stroke="white" stroke-width="1.92"/>
<line x1="997.44" y1="489.081" x2="997.44" y2="464.121" stroke="white" stroke-width="1.92"/>
<line x1="1104.96" y1="487.16" x2="1104.96" y2="443" stroke="white" stroke-width="1.92"/>
<line x1="1166.4" y1="487.16" x2="1166.4" y2="443" stroke="white" stroke-width="1.92"/>
<line x1="1051.2" y1="487.16" x2="1051.2" y2="443" stroke="white" stroke-width="1.92"/>
<line x1="1097.28" y1="487.16" x2="1097.28" y2="462.2" stroke="white" stroke-width="1.92"/>
<line x1="1158.72" y1="487.16" x2="1158.72" y2="462.2" stroke="white" stroke-width="1.92"/>
<line x1="1151.04" y1="487.16" x2="1151.04" y2="462.2" stroke="white" stroke-width="1.92"/>
<line x1="1035.84" y1="487.16" x2="1035.84" y2="462.2" stroke="white" stroke-width="1.92"/>
<line x1="1043.52" y1="487.16" x2="1043.52" y2="462.2" stroke="white" stroke-width="1.92"/>
<line x1="1089.6" y1="487.16" x2="1089.6" y2="462.2" stroke="white" stroke-width="1.92"/>
<line x1="1143.36" y1="487.16" x2="1143.36" y2="462.2" stroke="white" stroke-width="1.92"/>
<line x1="1081.92" y1="487.16" x2="1081.92" y2="462.2" stroke="white" stroke-width="1.92"/>
<line x1="1135.68" y1="487.16" x2="1135.68" y2="462.2" stroke="white" stroke-width="1.92"/>
<line x1="1074.24" y1="487.16" x2="1074.24" y2="462.2" stroke="white" stroke-width="1.92"/>
<line x1="1128" y1="487.16" x2="1128" y2="462.2" stroke="white" stroke-width="1.92"/>
<line x1="1066.56" y1="487.16" x2="1066.56" y2="462.2" stroke="white" stroke-width="1.92"/>
<line x1="1120.32" y1="487.16" x2="1120.32" y2="462.2" stroke="white" stroke-width="1.92"/>
<line x1="1058.88" y1="487.16" x2="1058.88" y2="462.2" stroke="white" stroke-width="1.92"/>
<line x1="1112.64" y1="487.16" x2="1112.64" y2="462.2" stroke="white" stroke-width="1.92"/>
<line x1="1220.16" y1="489.081" x2="1220.16" y2="444.921" stroke="white" stroke-width="1.92"/>
<line x1="1281.6" y1="489.081" x2="1281.6" y2="444.921" stroke="white" stroke-width="1.92"/>
<line x1="1166.4" y1="489.081" x2="1166.4" y2="444.921" stroke="white" stroke-width="1.92"/>
<line x1="1212.48" y1="489.081" x2="1212.48" y2="464.121" stroke="white" stroke-width="1.92"/>
<line x1="1273.92" y1="489.081" x2="1273.92" y2="464.121" stroke="white" stroke-width="1.92"/>
<line x1="1266.24" y1="489.081" x2="1266.24" y2="464.121" stroke="white" stroke-width="1.92"/>
<line x1="1151.04" y1="489.081" x2="1151.04" y2="464.121" stroke="white" stroke-width="1.92"/>
<line x1="1158.72" y1="489.081" x2="1158.72" y2="464.121" stroke="white" stroke-width="1.92"/>
<line x1="1204.8" y1="489.081" x2="1204.8" y2="464.121" stroke="white" stroke-width="1.92"/>
<line x1="1258.56" y1="489.081" x2="1258.56" y2="464.121" stroke="white" stroke-width="1.92"/>
<line x1="1197.12" y1="489.081" x2="1197.12" y2="464.121" stroke="white" stroke-width="1.92"/>
<line x1="1250.88" y1="489.081" x2="1250.88" y2="464.121" stroke="white" stroke-width="1.92"/>
<line x1="1189.44" y1="489.081" x2="1189.44" y2="464.121" stroke="white" stroke-width="1.92"/>
<line x1="1243.2" y1="489.081" x2="1243.2" y2="464.121" stroke="white" stroke-width="1.92"/>
<line x1="1181.76" y1="489.081" x2="1181.76" y2="464.121" stroke="white" stroke-width="1.92"/>
<line x1="1235.52" y1="489.081" x2="1235.52" y2="464.121" stroke="white" stroke-width="1.92"/>
<line x1="1174.08" y1="489.081" x2="1174.08" y2="464.121" stroke="white" stroke-width="1.92"/>
<line x1="1227.84" y1="489.081" x2="1227.84" y2="464.121" stroke="white" stroke-width="1.92"/>
<line x1="1335.36" y1="489.081" x2="1335.36" y2="444.921" stroke="white" stroke-width="1.92"/>
<line x1="1396.8" y1="489.081" x2="1396.8" y2="444.921" stroke="white" stroke-width="1.92"/>
<line x1="1281.6" y1="489.081" x2="1281.6" y2="444.921" stroke="white" stroke-width="1.92"/>
<line x1="1327.68" y1="489.081" x2="1327.68" y2="464.121" stroke="white" stroke-width="1.92"/>
<line x1="1389.12" y1="489.081" x2="1389.12" y2="464.121" stroke="white" stroke-width="1.92"/>
<line x1="1381.44" y1="489.081" x2="1381.44" y2="464.121" stroke="white" stroke-width="1.92"/>
<line x1="1266.24" y1="489.081" x2="1266.24" y2="464.121" stroke="white" stroke-width="1.92"/>
<line x1="1273.92" y1="489.081" x2="1273.92" y2="464.121" stroke="white" stroke-width="1.92"/>
<line x1="1320" y1="489.081" x2="1320" y2="464.121" stroke="white" stroke-width="1.92"/>
<line x1="1373.76" y1="489.081" x2="1373.76" y2="464.121" stroke="white" stroke-width="1.92"/>
<line x1="1312.32" y1="489.081" x2="1312.32" y2="464.121" stroke="white" stroke-width="1.92"/>
<line x1="1366.08" y1="489.081" x2="1366.08" y2="464.121" stroke="white" stroke-width="1.92"/>
<line x1="1304.64" y1="489.081" x2="1304.64" y2="464.121" stroke="white" stroke-width="1.92"/>
<line x1="1358.4" y1="489.081" x2="1358.4" y2="464.121" stroke="white" stroke-width="1.92"/>
<line x1="1296.96" y1="489.081" x2="1296.96" y2="464.121" stroke="white" stroke-width="1.92"/>
<line x1="1350.72" y1="489.081" x2="1350.72" y2="464.121" stroke="white" stroke-width="1.92"/>
<line x1="1289.28" y1="489.081" x2="1289.28" y2="464.121" stroke="white" stroke-width="1.92"/>
<line x1="1343.04" y1="489.081" x2="1343.04" y2="464.121" stroke="white" stroke-width="1.92"/>
<line x1="1396.8" y1="489.081" x2="1396.8" y2="444.921" stroke="white" stroke-width="1.92"/>
<line x1="1381.44" y1="489.081" x2="1381.44" y2="464.121" stroke="white" stroke-width="1.92"/>
<line x1="1389.12" y1="489.081" x2="1389.12" y2="464.121" stroke="white" stroke-width="1.92"/>
<line x1="1435.2" y1="489.081" x2="1435.2" y2="464.121" stroke="white" stroke-width="1.92"/>
<line x1="1427.52" y1="489.081" x2="1427.52" y2="464.121" stroke="white" stroke-width="1.92"/>
<line x1="1419.84" y1="489.081" x2="1419.84" y2="464.121" stroke="white" stroke-width="1.92"/>
<line x1="1412.16" y1="489.081" x2="1412.16" y2="464.121" stroke="white" stroke-width="1.92"/>
<line x1="1404.48" y1="489.081" x2="1404.48" y2="464.121" stroke="white" stroke-width="1.92"/>
</g>
<defs>
<clipPath id="clip0_73_625">
<rect width="1440" height="977.28" fill="white"/>
</clipPath>
</defs>
</svg>
