<svg width="1440" height="444" viewBox="0 0 1440 444" fill="none" xmlns="http://www.w3.org/2000/svg">
<rect y="0.246826" width="1440" height="17.3631" fill="white"/>
<rect y="27.256" width="1440" height="17.3631" fill="white"/>
<path d="M40.5023 409.244H88.2024L81.3881 443.97H24.9268L40.5023 409.244Z" fill="white"/>
<path d="M1411 409.244H1363.3L1370.12 443.97H1426.58L1411 409.244Z" fill="white"/>
<path d="M152.641 409.244H199.414L196.491 443.97H139.973L152.641 409.244Z" fill="white"/>
<path d="M1296.95 409.244H1250.17L1253.1 443.97H1309.61L1296.95 409.244Z" fill="white"/>
<path d="M260.929 409.244H310.626L307.702 443.97H251.185L260.929 409.244Z" fill="white"/>
<path d="M1186.74 409.244H1137.04L1139.97 443.97H1196.48L1186.74 409.244Z" fill="white"/>
<path d="M372.141 409.244H421.838L418.914 443.97H362.397L372.141 409.244Z" fill="white"/>
<path d="M1073.61 409.244H1023.91L1026.84 443.97H1083.36L1073.61 409.244Z" fill="white"/>
<path d="M482.237 409.244H529.214V443.97H473.608L482.237 409.244Z" fill="white"/>
<path d="M961.598 409.244H914.621V443.97H970.227L961.598 409.244Z" fill="white"/>
<path d="M591.531 409.244H635.633L638.509 443.97H582.903L591.531 409.244Z" fill="white"/>
<path d="M850.386 409.244H806.285L803.409 443.97H859.015L850.386 409.244Z" fill="white"/>
<path d="M698.908 409.244H742.051L747.803 443.97H692.197L698.908 409.244Z" fill="white"/>
</svg>
