<svg width="1248" height="1061" viewBox="0 0 1248 1061" fill="none" xmlns="http://www.w3.org/2000/svg">
<line x1="428.348" y1="479.06" x2="313.486" y2="1058.56" stroke="black" stroke-width="21.0919"/>
<line x1="598.978" y1="478.687" x2="719.321" y2="1054.43" stroke="black" stroke-width="21.0919"/>
<line x1="418.003" y1="493.308" x2="609.747" y2="493.308" stroke="black" stroke-width="36.4314"/>
<line x1="412.25" y1="592.056" x2="615.509" y2="592.056" stroke="black" stroke-width="19.1744"/>
<line x1="377.706" y1="742.575" x2="650.044" y2="742.575" stroke="black" stroke-width="19.1744"/>
<line x1="350.889" y1="899.806" x2="684.53" y2="899.806" stroke="black" stroke-width="19.1744"/>
<line x1="314.675" y1="1051.6" x2="682.824" y2="911.623" stroke="black" stroke-width="9.58722"/>
<line x1="373.951" y1="752.585" x2="680.742" y2="890.64" stroke="black" stroke-width="9.58722"/>
<line x1="375.337" y1="739.384" x2="620.77" y2="597.493" stroke="black" stroke-width="9.58722"/>
<line x1="425.418" y1="512.78" x2="617.163" y2="583.725" stroke="black" stroke-width="9.58722"/>
<line x1="465.123" y1="1056.03" x2="470.59" y2="601.623" stroke="black" stroke-width="5.75233"/>
<line x1="562.643" y1="1056.1" x2="555.227" y2="601.72" stroke="black" stroke-width="5.75233"/>
<line x1="469.773" y1="630.405" x2="554.141" y2="630.405" stroke="black" stroke-width="3.83489"/>
<line x1="471.691" y1="668.754" x2="556.058" y2="668.754" stroke="black" stroke-width="3.83489"/>
<line x1="469.773" y1="707.102" x2="554.141" y2="707.102" stroke="black" stroke-width="3.83489"/>
<line x1="469.773" y1="747.369" x2="554.141" y2="747.369" stroke="black" stroke-width="3.83489"/>
<line x1="469.773" y1="781.883" x2="556.058" y2="781.883" stroke="black" stroke-width="3.83489"/>
<line x1="469.773" y1="822.149" x2="556.058" y2="822.149" stroke="black" stroke-width="3.83489"/>
<line x1="469.773" y1="860.498" x2="559.893" y2="860.498" stroke="black" stroke-width="3.83489"/>
<line x1="469.773" y1="900.764" x2="559.893" y2="900.764" stroke="black" stroke-width="3.83489"/>
<line x1="467.856" y1="942.948" x2="559.894" y2="942.948" stroke="black" stroke-width="3.83489"/>
<line x1="465.939" y1="985.132" x2="559.894" y2="985.132" stroke="black" stroke-width="3.83489"/>
<line x1="465.939" y1="1027.32" x2="561.811" y2="1027.32" stroke="black" stroke-width="3.83489"/>
<path d="M412.25 473.174L615.5 473.174" stroke="black" stroke-width="9.58722"/>
<ellipse cx="516.751" cy="450.165" rx="29.7204" ry="30.6791" fill="black"/>
<rect x="59.4214" y="486.341" width="886.334" height="74.7803" transform="rotate(-15.8403 59.4214 486.341)" fill="black"/>
<rect x="56.3091" y="480.901" width="82.4501" height="79.8733" rx="7.66977" transform="rotate(-15.84 56.3091 480.901)" fill="black"/>
<path d="M138.85 590.98C136.883 595.424 131.331 596.941 127.377 594.115L78.7539 559.363C73.4965 555.605 74.9581 547.428 81.1918 545.724L154.003 525.825C160.237 524.121 165.654 530.418 163.039 536.328L138.85 590.98Z" fill="black"/>
<line x1="132.295" y1="587.964" x2="162.974" y2="1044.32" stroke="black" stroke-width="7.66977"/>
<rect x="115.047" y="596.199" width="34.514" height="70.9454" rx="3.83489" transform="rotate(-3.69712 115.047 596.199)" fill="black"/>
<rect x="126.551" y="658.486" width="19.1744" height="36.4314" rx="5.75233" transform="rotate(-3.7 126.551 658.486)" fill="black"/>
<path d="M319.327 939.711C319.619 943.224 318.417 946.889 315.847 950.664C313.275 954.442 309.37 958.276 304.369 962.088C294.368 969.711 280.13 977.137 263.885 983.792C231.399 997.101 191.104 1007.24 161.167 1009.73C131.267 1012.21 92.9132 1006.72 61.7212 996.808C46.1266 991.853 32.3757 985.81 22.3871 979.145C12.3446 972.444 6.34379 965.277 5.75103 958.145C5.16071 951.042 10.0106 943.434 19.0282 935.84C27.9966 928.287 40.8557 920.947 55.7211 914.377C85.4482 901.237 122.987 891.262 152.919 888.775C182.824 886.289 223.934 891.623 257.886 901.379C274.861 906.256 289.991 912.223 301.013 918.836C306.524 922.143 310.973 925.59 314.112 929.114C317.252 932.638 319.035 936.186 319.327 939.711Z" fill="black" stroke="black" stroke-width="1.91744"/>
<rect x="159.167" y="833.46" width="24.9268" height="83.7914" transform="rotate(-4.57592 159.167 833.46)" fill="black"/>
<rect x="115.047" y="837.56" width="24.9268" height="83.7914" transform="rotate(-4.57592 115.047 837.56)" fill="black"/>
<line x1="130.125" y1="839.869" x2="166.556" y2="836.542" stroke="black" stroke-width="5.75233"/>
<path d="M217.51 937.316C217.523 937.218 219.198 937.731 218.642 937.016C218.056 936.262 219.315 936.237 219.787 936.237" stroke="black" stroke-width="1.91744" stroke-linecap="round"/>
<path d="M213.795 933.84C213.896 933.851 214.466 934.08 214.514 934.14C214.702 934.375 214.935 934.249 215.14 934.413C215.238 934.492 215.757 934.559 215.892 934.559C216.147 934.559 216.434 934.72 216.671 934.826C217.267 935.09 217.873 934.987 218.469 935.252C218.627 935.322 219.091 935.518 219.248 935.518C219.538 935.518 219.704 935.758 219.967 935.758C220.215 935.758 220.404 935.997 220.746 935.997C221.039 935.997 221.267 936.237 221.525 936.237C221.953 936.237 222.228 936.477 222.663 936.477C223.057 936.477 223.294 936.479 223.635 936.65C224.286 936.975 225.324 936.386 225.899 936.889C225.968 936.95 226.289 936.956 226.138 936.956C225.979 936.956 225.819 936.956 225.659 936.956C225.246 936.956 225.149 936.978 224.913 936.743C224.48 936.31 223.551 936.237 224.7 936.237C225.06 936.237 225.094 936.392 225.366 936.47C225.893 936.621 224.928 936.477 224.7 936.477C223.76 936.477 222.908 935.989 222.037 935.731C221.73 935.64 221.099 935.656 220.865 935.451C220.805 935.398 220.399 935.252 220.399 935.218C220.399 934.977 220.789 935.369 220.806 935.391C221.131 935.825 221.843 935.997 222.363 935.997C222.734 935.997 223.003 936.237 223.382 936.237C223.754 936.237 223.782 936.103 223.435 936.004C222.485 935.732 223.392 935.667 223.928 935.764C224.267 935.826 224.431 935.974 224.82 935.997C225.514 936.038 224.736 936.385 224.461 936.477" stroke="black" stroke-width="1.91744" stroke-linecap="round"/>
<path d="M219.667 935.279C219.625 934.945 218.66 935.039 218.409 935.039C217.934 935.039 217.604 934.681 217.204 934.566C216.684 934.418 216.099 934.691 215.593 934.466C215.188 934.286 214.479 934.2 214.035 934.2" stroke="black" stroke-width="1.91744" stroke-linecap="round"/>
<rect x="588.568" y="321.034" width="132.304" height="32.5965" transform="rotate(-14.6785 588.568 321.034)" fill="black"/>
<path d="M894.488 51.3366L909.828 62.8413L910.786 254.586H893.529L894.488 51.3366Z" fill="#010000"/>
<path d="M935.712 96.3966L893.529 55.1715L1028.43 127.208L1082.48 180.672L1118.06 226.812L1148.73 286.907L1167.86 356.673L1173.69 431.367L1167.9 492.84L1138 593.014L1093.9 597.808L1118.06 510.564L1123.62 437.701L1118.06 365.797L1101.57 298.687L1072.81 251.709L1044.05 208.567L991.318 152.961L935.712 96.3966Z" fill="black"/>
<rect x="910.786" y="312.824" width="17.257" height="324.739" transform="rotate(-29.0682 910.786 312.824)" fill="black"/>
<path d="M1053.64 569.046L1143.75 569.046L1123.62 641.906L1077.6 641.906L1053.64 569.046Z" fill="black"/>
<path d="M995.119 279.574C1019.69 348.666 1012.46 426.966 993.029 433.876C973.6 440.787 948.682 373.161 924.108 304.07C899.533 234.978 885.605 166.583 905.034 159.672C924.462 152.762 970.544 210.483 995.119 279.574Z" fill="black"/>
<rect x="945.299" y="205.602" width="101.624" height="28.7617" transform="rotate(-22.7009 945.299 205.602)" fill="black"/>
<rect x="981.73" y="293.804" width="117.57" height="28.7617" transform="rotate(-22.7009 981.73 293.804)" fill="black"/>
<rect x="1003.15" y="150.291" width="28.9401" height="42.9363" transform="rotate(13.3267 1003.15 150.291)" fill="black"/>
<path d="M1139.53 290.131L1120.75 345.664L1034.46 295.81L1055.48 270.605L1139.53 290.131Z" fill="black"/>
<line x1="1169.64" y1="450.165" x2="1169.64" y2="710.937" stroke="black" stroke-width="3.83489"/>
<rect x="1161.97" y="703.268" width="15.3396" height="30.6791" rx="3.83489" fill="black"/>
<ellipse cx="1169.64" cy="734.905" rx="15.3396" ry="2.87617" fill="black"/>
<ellipse cx="1169.64" cy="742.575" rx="15.3396" ry="2.87617" fill="black"/>
<rect x="1167.72" y="735.864" width="3.83489" height="5.75233" fill="black"/>
<rect x="1165.81" y="743.534" width="7.66978" height="9.58722" rx="1.91744" fill="black"/>
<line x1="1170.6" y1="753.121" x2="1170.6" y2="1059.91" stroke="black" stroke-width="1.91744"/>
</svg>
