<svg width="488" height="614" viewBox="0 0 488 614" fill="none" xmlns="http://www.w3.org/2000/svg">
<path d="M256.868 334.288L399.027 386.047C431.674 397.933 431.775 435.632 399.193 448.2L257.902 502.697C246.254 507.19 232.779 507.132 221.309 502.541L84.322 447.713C52.7302 435.068 53.6336 398.131 85.8321 385.966L221.951 334.539C233.049 330.345 245.787 330.254 256.868 334.288Z" stroke="white" stroke-width="3.83489"/>
<path d="M256.049 319.061L398.208 370.819C430.856 382.706 430.957 420.405 398.375 432.972L257.084 487.47C245.436 491.962 231.961 491.905 220.49 487.314L83.5036 432.485C51.9119 419.841 52.8152 382.903 85.0138 370.738L221.132 319.311C232.231 315.118 244.969 315.026 256.049 319.061Z" fill="black" stroke="white" stroke-width="3.83489"/>
<rect width="2.46643" height="11.9823" transform="matrix(0.999489 -0.0319741 0.0483503 0.99883 58.6113 405.217)" fill="white"/>
<rect width="2.72902" height="14.2308" transform="matrix(0.999489 -0.0319741 0.0483503 0.99883 421.838 401.351)" fill="white"/>
<path d="M344.161 394.849C347.148 406.387 341.079 418.344 330.006 422.746L304.758 432.016L274.71 439.278L243.831 442.266C241.717 442.471 239.589 442.468 237.475 442.259L207.347 439.272L179.72 434.544C177.578 434.177 175.478 433.597 173.451 432.813L161.689 428.259C160.315 427.727 158.983 427.092 157.704 426.359C146.303 419.819 140.682 406.463 143.976 393.738L212.369 129.549C220.8 96.9789 267.05 96.9789 275.481 129.549L344.161 394.849Z" fill="black" stroke="white" stroke-width="3.83489"/>
<path d="M145.726 413.82C160.106 439.865 261.731 461.086 340.346 414.785" stroke="white" stroke-width="3.83489"/>
<path d="M260.865 109.95C265.35 112.316 268.042 115.495 268.774 118.991C268.678 121.579 266.431 124.196 261.614 126.273C256.827 128.337 250.144 129.543 242.864 129.543C235.604 129.543 229.358 128.244 225.002 126.155C220.673 124.079 218.687 121.497 218.592 119.005C220.082 112.416 228.469 106.096 242.864 106.096C250.087 106.096 256.312 107.549 260.865 109.95Z" fill="black" stroke="white" stroke-width="3.83489"/>
<path d="M288.944 188.979C239.832 207.611 214.457 196.52 196.449 188.979C193.175 202.065 185.972 230.634 183.353 240.216C231.646 270.826 284.851 252.859 303.678 240.216C300.949 230.457 294.183 206.546 288.944 188.979Z" fill="white" stroke="white" stroke-width="3.83489"/>
<path d="M319.23 300.77C257.839 320.733 225.098 322.729 170.256 300.77C166.982 313.857 155.686 351.741 153.066 361.323C207.909 393.929 269.299 399.252 333.964 361.323C331.235 351.564 324.468 318.337 319.23 300.77Z" fill="white" stroke="white" stroke-width="3.83489"/>
</svg>
