<svg width="1358" height="543" viewBox="0 0 1358 543" fill="none" xmlns="http://www.w3.org/2000/svg">
<rect width="982.704" height="40.3447" transform="matrix(-1 0 0 1 1264.35 417.567)" fill="black"/>
<rect width="753.744" height="18.1551" transform="matrix(-1 0 0 1 1229.9 391.344)" fill="black"/>
<rect width="972.573" height="350.999" rx="134.221" transform="matrix(-1 0 0 1 1357.55 32.2764)" fill="black"/>
<rect width="322.165" height="236.017" transform="matrix(-1 0 0 1 328.243 181.552)" fill="black"/>
<path d="M328.243 32.2764H87.7869L6.0784 181.552H328.243V32.2764Z" fill="black"/>
<line y1="-2.87617" x2="257.327" y2="-2.87617" transform="matrix(-1 0 0 1 328.243 52.4482)" stroke="white" stroke-width="5.75233"/>
<path d="M257.327 69.5957H81.048L17.2229 190.63H257.327C263 190.63 265.769 185.923 266.445 183.57V79.6819C268.066 72.4198 261.042 69.9319 257.327 69.5957Z" stroke="white" stroke-width="5.75233"/>
<path d="M182.358 70.603H160.07L194.515 191.637H219.842L182.358 70.603Z" fill="white"/>
<path d="M145.508 70.603H137.781L175.266 191.637H182.357L145.508 70.603Z" fill="white"/>
<rect width="72.943" height="26.2241" transform="matrix(-1 0 0 1 210.725 221.896)" fill="white"/>
<rect x="-2.87617" y="2.87617" width="12.4834" height="58.7992" transform="matrix(-1 0 0 1 12.4835 318.723)" fill="white" stroke="black" stroke-width="5.75233"/>
<rect width="190.462" height="24.2068" rx="9.58722" transform="matrix(-1 0 0 1 725.378 0)" fill="black"/>
<path d="M1030.16 457.913C1030.16 503.105 1066.96 539.761 1112.38 539.761C1157.8 539.761 1194.6 503.105 1194.6 457.913C1194.6 412.722 1157.8 376.066 1112.38 376.066C1066.96 376.066 1030.16 412.722 1030.16 457.913Z" fill="black" stroke="white" stroke-width="5.75233"/>
<path d="M789.04 457.913C789.04 503.105 825.841 539.761 871.264 539.761C916.687 539.761 953.488 503.105 953.488 457.913C953.488 412.722 916.687 376.066 871.264 376.066C825.841 376.066 789.04 412.722 789.04 457.913Z" fill="black" stroke="white" stroke-width="5.75233"/>
<path d="M67.715 457.913C67.715 503.105 104.516 539.761 149.939 539.761C195.362 539.761 232.163 503.105 232.163 457.913C232.163 412.722 195.362 376.066 149.939 376.066C104.516 376.066 67.715 412.722 67.715 457.913Z" fill="black" stroke="white" stroke-width="5.75233"/>
<path d="M36.4717 450.852C34.8508 438.749 39.511 424.628 42.5503 418.577H7.0919V450.852H36.4717Z" fill="black" stroke="black" stroke-width="1.91744"/>
<path d="M252.261 409.497H227.947C196.541 364.109 167.161 365.119 140.821 367.136C106.375 367.136 80.3725 396.049 71.93 409.497H48.6288C67.8776 369.154 81.0479 369.154 92.1919 361.084C106.375 353.016 131.703 343.55 163.109 345.955C203.546 349.052 227.947 367.136 252.261 409.497Z" fill="white"/>
<ellipse cx="51.6679" cy="51.4395" rx="51.6679" ry="51.4395" transform="matrix(-1 0 0 1 1165.06 405.465)" fill="white"/>
<ellipse cx="51.6679" cy="51.4395" rx="51.6679" ry="51.4395" transform="matrix(-1 0 0 1 923.944 405.465)" fill="white"/>
<ellipse cx="51.6679" cy="51.4395" rx="51.6679" ry="51.4395" transform="matrix(-1 0 0 1 202.62 405.465)" fill="white"/>
<ellipse cx="14.1834" cy="14.1207" rx="14.1834" ry="14.1207" transform="matrix(-1 0 0 1 1126.56 443.792)" fill="black"/>
<ellipse cx="14.1834" cy="14.1207" rx="14.1834" ry="14.1207" transform="matrix(-1 0 0 1 885.446 443.792)" fill="black"/>
<ellipse cx="14.1834" cy="14.1207" rx="14.1834" ry="14.1207" transform="matrix(-1 0 0 1 164.122 443.792)" fill="black"/>
<ellipse cx="5.06548" cy="5.04309" rx="5.06548" ry="5.04309" transform="matrix(-1 0 0 1 1146.83 429.672)" fill="black"/>
<ellipse cx="5.06548" cy="5.04309" rx="5.06548" ry="5.04309" transform="matrix(-1 0 0 1 903.683 427.655)" fill="black"/>
<ellipse cx="5.06548" cy="5.04309" rx="5.06548" ry="5.04309" transform="matrix(-1 0 0 1 182.357 427.655)" fill="black"/>
<ellipse cx="5.06548" cy="5.04309" rx="5.06548" ry="5.04309" transform="matrix(-1 0 0 1 1118.46 417.567)" fill="black"/>
<ellipse cx="5.06548" cy="5.04309" rx="5.06548" ry="5.04309" transform="matrix(-1 0 0 1 875.315 415.551)" fill="black"/>
<ellipse cx="5.06548" cy="5.04309" rx="5.06548" ry="5.04309" transform="matrix(-1 0 0 1 153.991 415.551)" fill="black"/>
<ellipse cx="5.06548" cy="5.04309" rx="5.06548" ry="5.04309" transform="matrix(-1 0 0 1 1092.12 429.672)" fill="black"/>
<ellipse cx="5.06548" cy="5.04309" rx="5.06548" ry="5.04309" transform="matrix(-1 0 0 1 848.975 427.655)" fill="black"/>
<ellipse cx="5.06548" cy="5.04309" rx="5.06548" ry="5.04309" transform="matrix(-1 0 0 1 127.65 427.655)" fill="black"/>
<ellipse cx="5.06548" cy="5.04309" rx="5.06548" ry="5.04309" transform="matrix(-1 0 0 1 1084.01 451.861)" fill="black"/>
<ellipse cx="5.06548" cy="5.04309" rx="5.06548" ry="5.04309" transform="matrix(-1 0 0 1 840.871 449.844)" fill="black"/>
<ellipse cx="5.06548" cy="5.04309" rx="5.06548" ry="5.04309" transform="matrix(-1 0 0 1 119.545 449.844)" fill="black"/>
<ellipse cx="5.06548" cy="5.04309" rx="5.06548" ry="5.04309" transform="matrix(-1 0 0 1 1154.93 451.861)" fill="black"/>
<ellipse cx="5.06548" cy="5.04309" rx="5.06548" ry="5.04309" transform="matrix(-1 0 0 1 911.787 449.844)" fill="black"/>
<ellipse cx="5.06548" cy="5.04309" rx="5.06548" ry="5.04309" transform="matrix(-1 0 0 1 190.462 449.844)" fill="black"/>
<ellipse cx="5.06548" cy="5.04309" rx="5.06548" ry="5.04309" transform="matrix(-1 0 0 1 1142.77 476.068)" fill="black"/>
<ellipse cx="5.06548" cy="5.04309" rx="5.06548" ry="5.04309" transform="matrix(-1 0 0 1 899.63 474.051)" fill="black"/>
<ellipse cx="5.06548" cy="5.04309" rx="5.06548" ry="5.04309" transform="matrix(-1 0 0 1 178.305 474.051)" fill="black"/>
<ellipse cx="5.06548" cy="5.04309" rx="5.06548" ry="5.04309" transform="matrix(-1 0 0 1 1118.46 490.189)" fill="black"/>
<ellipse cx="5.06548" cy="5.04309" rx="5.06548" ry="5.04309" transform="matrix(-1 0 0 1 875.315 488.171)" fill="black"/>
<ellipse cx="5.06548" cy="5.04309" rx="5.06548" ry="5.04309" transform="matrix(-1 0 0 1 153.991 488.171)" fill="black"/>
<ellipse cx="5.06548" cy="5.04309" rx="5.06548" ry="5.04309" transform="matrix(-1 0 0 1 1090.09 480.103)" fill="black"/>
<ellipse cx="5.06548" cy="5.04309" rx="5.06548" ry="5.04309" transform="matrix(-1 0 0 1 846.949 478.085)" fill="black"/>
<ellipse cx="5.06548" cy="5.04309" rx="5.06548" ry="5.04309" transform="matrix(-1 0 0 1 125.625 478.085)" fill="black"/>
</svg>
