<svg width="1224" height="442" viewBox="0 0 1224 442" fill="none" xmlns="http://www.w3.org/2000/svg">
<path d="M1221.41 220.506C1221.41 280.409 1178.76 335.019 1108.98 374.761C1039.26 414.472 942.813 439.095 836.174 439.095C729.535 439.095 633.086 414.472 563.363 374.761C493.585 335.019 450.937 280.409 450.937 220.506C450.937 160.603 493.585 105.993 563.363 66.2509C633.086 26.54 729.535 1.91744 836.174 1.91744C942.813 1.91744 1039.26 26.54 1108.98 66.2509C1178.76 105.993 1221.41 160.603 1221.41 220.506Z" stroke="white" stroke-width="3.83489"/>
<path d="M1017.68 35.7177C1014.69 35.7177 1006.13 28.3868 1005.83 35.9503C1005.7 39.0496 1006.82 40.9526 1002.95 40.9526C998.082 40.9526 993.631 39.5723 998.284 44.0936" stroke="white" stroke-width="3.83489" stroke-linecap="round"/>
<path d="M1018.22 35.1043C1019.83 34.3238 1020.33 33.2435 1018.22 32.5586" stroke="white" stroke-width="3.83489" stroke-linecap="round"/>
<path d="M996.735 46.814C994.558 46.814 992.532 47.3231 990.446 47.3231C989.26 47.3231 987.754 46.8455 986.647 46.4321C985.18 45.884 984.944 46.3138 984.944 47.8323C984.944 48.8929 984.944 49.9536 984.944 51.0143C984.944 51.7154 984.373 52.7583 984.74 53.4327C984.912 53.7477 987.133 54.3498 987.55 54.451C988.706 54.7318 990.101 55.371 989.748 56.5582C989.35 57.894 988.208 61.4875 986.516 61.5788C985.975 61.608 985.494 62.2728 985.002 62.4839C983.737 63.0273 982.846 63.9474 981.829 64.8457C980.578 65.9509 979.435 65.5019 977.928 65.3973C975.981 65.2621 974.576 65.3642 972.746 66.4721C970.92 67.5778 969.486 70.8371 969.486 72.907C969.486 73.4257 969.222 73.9292 969.267 74.4344C969.355 75.4117 971.351 75.8573 970.941 76.8528C970.454 78.0371 969.919 78.3802 968.7 78.3802C967.826 78.3802 966.953 78.3802 966.08 78.3802C964.675 78.3802 964.386 78.6048 964.26 80.0065C964.199 80.689 964.053 81.8435 964.566 82.3966C964.942 82.8032 965.073 84.2866 965.439 84.4897C966.423 85.036 966.816 85.3283 967.186 86.2717C967.699 87.5815 967.811 90.4453 967.113 91.5044C966.439 92.528 965.459 93.4367 964.828 94.4178C964.145 95.4799 960.642 94.3453 959.413 94.6865C958.535 94.9303 957.345 94.6814 956.444 94.9835C955.466 95.3111 954.395 96.3582 953.547 96.9352C953.179 97.1856 952.484 97.1115 952.251 97.4726C951.924 97.9819 951.069 98.1255 950.49 98.2504C948.407 98.7002 946.563 99.2492 944.391 98.6323C941.568 97.8305 938.352 96.5103 936.211 94.5451C934.47 92.9478 933.516 90.58 931.742 89.0719C929.747 87.3755 927.252 89.7541 925.206 90.5993C924.285 90.98 923.891 91.6242 923.11 92.0701C922.703 92.3027 922.856 92.8089 922.47 93.1308C921.338 94.0731 918.774 93.0747 917.55 92.6924C916.182 92.2651 915.186 91.835 913.94 91.1084" stroke="white" stroke-width="3.83489" stroke-linecap="round"/>
<path d="M911.706 91.8451C910.831 88.0176 902.378 87.3618 899.293 88.3992C895.196 89.777 892.276 95.689 893.498 99.8443C893.836 100.994 895.707 102.898 894.29 104.275C893.293 105.243 890.046 105.053 890.046 106.521C890.046 108.421 890.969 109.429 888.59 110.09C885.675 110.899 881.922 108.162 879.66 106.798C876.406 104.835 873.368 103.475 869.527 103.475C866.416 103.475 866.468 103.784 864.397 105.69C860.442 109.33 849.068 108.302 843.561 107.874C837.728 107.421 833.256 102.762 829.755 109.566C828.944 111.142 829.293 113.003 828.235 114.674C827.388 116.01 824.656 119.637 826.24 120.919C827.375 121.839 829.628 121.853 829.628 123.688C829.628 126.622 828.768 127.089 827.348 129.503C826.058 131.697 823.348 132.736 821.11 133.687C818.878 134.636 816.739 136.103 814.492 137.133C812.912 137.857 811.422 137.646 810.122 138.795C807.239 141.341 803.409 145.903 803.409 149.87C803.409 152.228 802.846 154.739 804.675 156.516C805.983 157.786 806.649 158.184 807.652 159.716C812.07 166.461 804.415 172.276 799.736 176.606C796.089 179.981 792.436 182.077 790.996 186.975C790.434 188.884 791.116 192.282 789.729 193.313C787.613 194.885 784.461 195.652 782.921 197.897C782.513 198.491 780.639 201.858 780.293 202.05C779.536 202.47 777.486 205.616 777.189 206.481" stroke="white" stroke-width="3.83489" stroke-linecap="round"/>
<path d="M775.48 207.588C775.561 208.93 775.682 214.838 776.62 215.464C778.892 216.982 781.194 218.373 783.713 219.772C787.407 221.822 788.02 226.946 788.02 230.601C788.02 234.597 791.032 234.882 793.72 237.493C795.832 239.545 795.429 241.371 795.429 244.138C795.429 245.769 795.675 245.714 796.443 246.907C796.835 247.518 798.957 247.939 799.419 247.154C800.182 245.857 802.985 246.133 803.378 244.415C803.613 243.387 803.749 240.91 803.283 239.954C802.644 238.644 801.707 237.618 801.003 236.385C800.392 235.318 798.096 235.278 799.134 235.278C802.628 235.278 804.24 234.493 807.399 233.616C809.762 232.961 813.106 232.654 814.366 230.97C816.664 227.899 819.383 222.188 813.796 221.987C808.755 221.805 809.109 214.993 809.109 211.772C809.109 207.896 814.338 207.588 817.659 207.588C821.021 207.588 825.472 210.356 828.489 207.588C830.478 205.763 833.023 203.588 834.062 201.066C834.604 199.749 834.188 199.94 834.188 198.45C834.188 196.849 834.942 196.027 835.36 194.605C835.721 193.377 835.328 193.404 835.328 192.082" stroke="white" stroke-width="3.83489" stroke-linecap="round"/>
<path d="M874.658 158.855C873.314 158.692 872.344 157.748 870.668 157.748C869.148 157.748 867.628 157.748 866.108 157.748C863.779 157.748 861.168 157.189 859.395 158.978C857.388 161.003 856.543 164.044 855.025 166.362C853.689 168.402 854.607 174.151 854.708 176.7C854.794 178.868 858.207 181.357 860.123 182.391C863.284 184.098 867.768 186.424 868.356 190.421C868.604 192.111 868.55 194.267 868.356 195.959C868.059 198.561 866.662 198.743 864.968 200.39C862.175 203.104 860.183 203.726 859.236 207.866C858.302 211.953 857.605 215.507 858.825 219.773C859.581 222.416 861.361 224.794 862.815 227.095C863.82 228.687 865.047 232.197 866.678 233.187C867.951 233.96 868.081 236.278 870.098 236.386C871.437 236.459 872.327 235.279 873.834 235.279C878.326 235.279 880.126 237.453 881.941 241.371C883.905 245.611 877.7 250.494 874.689 252.2C872.082 253.678 868.79 258.454 868.419 261.338C868.112 263.724 867.818 266.355 867.818 268.753C867.818 271.324 870.806 271.906 872.061 273.614C876.057 279.049 878.487 281.507 872.948 286.505C870.875 288.375 870.938 292.09 868.704 293.95C867.705 294.782 867.818 296.662 867.818 297.858" stroke="white" stroke-width="3.83489" stroke-linecap="round"/>
<path d="M874.657 158.855C877.321 160.972 881.095 161.07 884.347 161.07C886.567 161.07 889.769 163.902 890.015 166.054C890.202 167.685 890.392 170.22 890.015 171.869C889.519 174.04 887.67 175.531 890.87 177.13C896.096 179.741 901.612 181.216 907.146 182.945C911.331 184.252 913.256 184.218 914.429 188.821C915.385 192.57 917.439 197.209 916.804 201.22C916.303 204.387 916.09 208.025 920.636 208.635C929.098 209.769 938.061 207.555 945.905 204.697C949.438 203.409 952.286 202.265 955.722 204.389C959.146 206.506 963.005 211.583 963.005 215.619C963.005 231.631 915.966 220.604 926.526 241.124C929.277 246.471 935.627 248.301 933.651 255.215C932.736 258.414 930.715 260.782 930.516 264.076C930.143 270.225 929.725 275.581 926.811 281.243C924.548 285.639 926.147 293.09 920.478 295.334C912.432 298.519 903.327 299.455 894.923 301.426C893.217 301.826 891.89 301.719 890.332 302.534C889.336 303.054 887.868 303.866 886.754 303.949C881.842 304.316 882.047 312.81 877.222 312.81C872.965 312.81 861.707 312.28 865.854 305.733C867.771 302.707 868.387 299.94 868.387 296.196" stroke="white" stroke-width="3.83489" stroke-linecap="round"/>
<path d="M836.468 191.528C837.408 190.717 838.617 188.993 839.571 188.729C840.521 188.465 841.896 184.639 842.738 183.775C845.09 181.363 849.742 179.899 852.997 179.899" stroke="white" stroke-width="3.83489" stroke-linecap="round"/>
<path d="M865.807 303.304C864.296 304.479 860.538 303.739 858.774 303.767C854.988 303.826 854.46 304.544 853.698 307.928C853.031 310.89 853.056 314.87 854.386 317.637C855.585 320.135 858.193 323.855 858.193 326.653C858.193 330.975 852.212 334.12 848.675 336.029C845.66 337.657 843.917 345.095 843.917 348.153C843.917 349.266 843.917 350.379 843.917 351.492C843.917 353.104 844.525 353.472 844.842 354.857C845.199 356.417 849.53 357.091 850.949 357.298C854.618 357.832 858.003 357.195 861.498 356.296C868.837 354.408 876.053 352.909 883.705 352.083C891.183 351.276 901.022 352.216 906.283 358.094C908.18 360.214 910.055 361.981 911.702 364.31C913.264 366.517 912.791 371.449 912.231 373.943C911.552 376.97 909.974 379.201 908.371 381.649C908.014 382.193 907.074 382.274 906.838 382.83C906.506 383.613 910.936 384.915 911.491 385.245C913.546 386.465 915.249 388.063 917.572 388.815C919.029 389.287 917.29 390.149 916.726 390.485C914.311 391.919 913.583 394.323 912.073 396.341C911.263 397.423 911.703 398.678 911.438 399.963C911.093 401.639 909.72 404.151 910.645 405.948C911.93 408.446 916.37 409.482 918.656 410.777C919.966 411.52 921.415 410.355 922.066 412.062C922.782 413.94 922.292 416.324 924.34 416.608C926.396 416.894 928.527 418.356 930.632 418.432C933.528 418.536 934.793 416.011 935.999 413.577C936.572 412.421 937.984 409.647 939.673 409.647C942.702 409.647 947.768 412.364 950.011 414.271C952.83 416.668 954.632 418.247 958.709 417.404C967.93 415.498 972.879 406.832 972.879 398.448C972.879 394.669 972.403 390.958 972.403 387.197C972.403 384.291 974.669 382.293 976.448 380.056C978.553 377.409 979.917 375.432 983.348 375.432C984.876 375.432 985.553 374.19 985.701 372.607C985.846 371.061 986.329 368.309 985.014 367.315C984.146 366.659 981.08 363.508 980.969 362.486C980.782 360.756 981.134 358.264 983.11 357.837C985.87 357.241 988.384 355.305 990.962 354.267C996.707 351.954 998.811 346.686 1000.37 341.218C1001.14 338.522 1002.79 336.215 1003.81 333.615C1004.89 330.856 1009.49 330.584 1011.95 330.584C1015.51 330.584 1018.16 330.678 1021.15 329.299C1023.08 328.411 1025.39 327.774 1027.42 327.116C1029.69 326.381 1034.4 325.348 1036.06 323.545C1036.98 322.557 1034.48 319.821 1034.29 318.819C1033.92 316.81 1033.09 314.985 1032.47 313.014C1031.62 310.314 1030.27 307.24 1029.03 304.666C1027.09 300.629 1025.45 296.461 1023.43 292.465C1022.02 289.669 1019.37 286.897 1017.37 284.373C1015.14 281.549 1013.33 278.551 1013.33 274.895C1013.33 270.837 1014.42 268.861 1017.61 266.059C1018.34 265.416 1020.5 265.942 1021.44 265.828C1024.47 265.46 1027.34 263.681 1029.51 261.692C1034.63 257.001 1043.58 261.98 1049.5 262.154C1051.72 262.22 1053.31 262.724 1055.66 262.154C1058.36 261.497 1058.66 260.366 1061.39 261.692" stroke="white" stroke-width="3.83489" stroke-linecap="round"/>
<path d="M1025.7 368.497C1022.67 371.116 1019.39 373.139 1016.66 376.101C1014.6 378.336 1016.48 380.046 1017.03 382.368C1017.47 384.259 1017.63 387.639 1015.71 388.738C1014.31 389.538 1013.33 390.598 1011.9 391.153C1011.14 391.449 1011.43 392.581 1011.43 393.259C1011.43 395.122 1012.08 395.028 1013.78 395.545C1015.74 396.141 1017.18 396.239 1019.28 396.239C1021.63 396.239 1024.31 396.671 1026.42 395.571C1028.67 394.392 1032.1 393.769 1034.06 392.078C1035.5 390.835 1036.27 388.877 1036.75 386.992C1037.15 385.435 1037.12 383.968 1037.12 382.368C1037.12 381.113 1036.46 379.881 1036.75 378.669C1037.34 376.258 1038.35 375.013 1039.77 373.018C1041.1 371.14 1043.66 369.703 1043.28 367.11C1042.97 364.982 1039.46 363.373 1038.07 362.024C1035.49 359.509 1034.6 361.587 1032.15 362.949C1031.47 363.33 1030.39 364.82 1029.69 365.492C1028.32 366.827 1026.77 367.749 1025.23 368.497" stroke="white" stroke-width="3.83489" stroke-linecap="round"/>
<path d="M1062.34 264.004C1062.51 262.543 1065.29 263.08 1066.39 263.08C1069.34 263.08 1069.7 260.37 1069.46 258.019C1069.31 256.558 1067.94 255.657 1067.58 254.269C1067.01 252.069 1066.05 249.869 1065.73 247.616C1065.11 243.23 1065.68 238.416 1065.68 233.977C1065.68 230.266 1065.23 225.516 1070.33 225.629C1074.33 225.717 1079.81 230.817 1079.95 234.773C1080.08 238.288 1078.78 243.291 1081.59 245.972C1083.62 247.908 1087.93 248.547 1089.26 251.058C1090.02 252.506 1089.63 254.622 1090.32 256.247C1091.45 258.965 1093.32 257.548 1095.42 257.095C1098.28 256.477 1099.64 263.378 1099.91 265.109C1100.38 268.041 1107.2 267.856 1109.69 266.779C1110.77 266.313 1110.49 265.854 1111.89 265.854C1114.22 265.854 1116.28 265.904 1118.44 266.804C1119.34 267.177 1119.23 271.122 1118.95 272.07C1118.56 273.382 1116.52 274.207 1115.88 275.332C1114.85 277.128 1112.79 280.261 1112.79 282.293C1112.79 284.443 1111.38 287.535 1112.52 289.691C1113.83 292.17 1117.87 293.468 1120.03 294.983C1123.32 297.285 1122.95 300.386 1121.72 303.87C1121.52 304.44 1117.17 313.325 1117.28 313.374C1120.51 314.849 1124.48 309.402 1126.83 308.391C1127.88 307.937 1128.89 306.861 1129.65 306.053C1131.03 304.598 1132.8 303.801 1134.41 302.611C1137.9 300.038 1140.44 298.116 1143.93 301.918C1146.08 304.261 1148.57 306.786 1149.67 309.778C1150.13 311.029 1149.17 314.146 1150.59 314.761C1151.62 315.204 1154.93 315.115 1155.99 314.761C1157.42 314.28 1157.04 312.398 1157.04 311.268C1157.04 310.381 1155.63 309.829 1156.94 309.778C1161.72 309.592 1162.75 312.503 1162.75 316.508C1162.75 319.627 1162.92 320.121 1159.79 320.772C1156.26 321.507 1154.19 324.603 1154.19 327.913C1154.19 329.69 1153.93 330.805 1155.35 331.971C1156.09 332.576 1157.38 332.104 1157.89 332.896C1158.5 333.845 1159.19 336.939 1158 337.52" stroke="white" stroke-width="3.83489" stroke-linecap="round"/>
<path d="M1122.78 324.111C1122.78 326.092 1112.49 335.757 1119.45 336.132C1123.1 336.329 1128.99 344.111 1129.44 336.132C1129.6 333.455 1130.45 332.866 1132.54 331.74C1134 330.948 1133.25 327.062 1133.25 325.601C1133.25 322.694 1132.48 323.354 1129.68 322.75C1127.67 322.316 1126.63 323.586 1125.64 325.036" stroke="white" stroke-width="3.83489" stroke-linecap="round"/>
<path d="M1164.66 302.843C1164.73 302.252 1165.5 302.156 1165.82 301.661C1166.27 300.974 1166.09 299.918 1166.09 299.144C1166.09 297.639 1166.12 296.128 1166.09 294.623C1166.05 292.991 1165.13 291.416 1165.13 289.897C1165.13 288.651 1167.23 288.325 1168.36 287.945C1170.66 287.172 1171.33 284.731 1172.38 282.704C1173.47 280.589 1178.43 281.08 1180.36 280.29C1184.76 278.489 1187.71 289.084 1185.12 291.746C1183.76 293.143 1182.76 292.293 1180.84 292.774C1179.43 293.125 1178.23 293.93 1176.92 294.418C1174.95 295.155 1173.66 296.26 1172.27 297.757C1170.89 299.247 1171.49 301.206 1170.74 302.843C1169.65 305.217 1167.44 304.692 1165.13 304.692" stroke="white" stroke-width="3.83489" stroke-linecap="round"/>
<path d="M1000.65 45.6726C1002.51 47.6835 1002.53 51.9136 1004.66 53.4161C1006.96 55.0432 1009 55.1992 1011.43 56.2504C1014.61 57.6212 1017.63 58.524 1020.55 60.9066C1023.94 63.6735 1020.35 65.5718 1018.93 68.6755C1018.37 69.9062 1017.65 73.6658 1019.51 74.268C1020.93 74.7293 1023.05 75.531 1024.53 75.7105C1026.72 75.9758 1026.63 79.0687 1026.8 80.8475C1026.96 82.564 1026.76 85.087 1025.86 86.6678C1025.62 87.0933 1023.39 88.4344 1024.4 88.9706C1026.88 90.2855 1029.79 91.1114 1032.42 92.1338C1033.87 92.6971 1035.2 93.0449 1036.75 93.0449C1041.12 93.0449 1044 92.6495 1043.78 87.9331C1043.7 86.1834 1041.91 85.0956 1041.91 83.4793C1041.91 80.9577 1046.03 81.6276 1047.45 81.7079C1049.25 81.809 1054.49 81.5784 1056 82.796C1057.1 83.687 1057.76 83.4824 1058.78 82.5683C1061.69 79.9628 1065.15 77.9159 1068.11 75.3056C1069.19 74.3512 1071.43 73.0538 1071.81 71.6362C1073.08 66.8334 1065.58 62.9811 1071.41 59.0846C1072.28 58.5061 1076.61 56.4014 1076.49 56.0479C1076.18 55.1021 1073.22 52.0496 1072.38 52.0496" stroke="white" stroke-width="3.83489" stroke-linecap="round"/>
<path d="M764.905 9.25464C764.905 10.8565 763.988 15.6079 765.675 16.5723C767.491 17.6099 769.723 17.676 771.453 18.6096C775.533 20.8119 775.702 25.1174 774.32 29.295C773.119 32.9229 767.026 36.7227 771.11 41.3525C774.124 44.7689 790.482 45.1744 785.874 51.3311C785.638 51.6457 784.955 54.5109 784.932 54.9068C784.747 58.1424 788.22 59.4156 789.896 61.975C792.109 65.3534 793.996 70.9172 793.234 75.1135C792.863 77.1551 790.522 83.4758 788.613 84.2606C786.602 85.087 784.84 85.724 783.007 86.7136C781.554 87.498 779.838 86.6777 778.385 87.462C773.216 90.252 773.115 98.1365 772.779 103.22C772.609 105.791 770.769 115.913 772.779 118.354C774.949 120.989 776.26 124.811 777.957 127.834C779.009 129.707 780.555 131.751 781.038 133.863C781.541 136.062 775.059 142.335 773.378 143.218C764.968 147.635 766.152 139.191 761.824 134.985C756.897 130.198 753.976 140.317 754.121 144.132C754.206 146.357 756.503 148.059 756.432 149.787C756.363 151.457 752.401 155.583 750.612 155.899C746.731 156.584 744.273 161.051 742.268 164.048C741.652 164.968 741.027 165.667 741.027 166.792C741.027 167.419 742.022 169.006 741.283 169.245C733.6 171.734 727.932 164.13 727.932 157.77C727.932 154.904 723.593 153.298 721.042 152.988C717.191 152.52 717.136 156.219 714.666 158.019C712.623 159.508 705.409 152.984 704.225 151.45C702.86 149.682 701.677 146.475 702.898 144.34C705.299 140.141 709.653 138.349 709.445 132.906C709.334 129.992 701.053 124.439 698.747 122.678C696.064 120.63 692.227 118.894 695.58 116.857C697.49 115.697 696.351 109.36 696.351 107.544C696.351 102.603 695.076 97.9065 691.344 94.2807C689.592 92.579 685.851 91.8372 683.684 90.4972C681.066 88.8788 677.136 93.7822 675.553 95.3202C673.944 96.8837 671.703 97.7301 670.161 99.3948C667.959 101.772 668.161 108.578 665.497 109.872C663.502 110.841 656.787 104.555 655.526 103.261C653.516 101.2 652.445 100.727 652.445 97.5654C652.445 95.5696 652.445 93.5739 652.445 91.5782C652.445 87.734 646.595 89.7499 643.715 90.123C641.088 90.4634 639.594 89.4162 637.039 89.4162C634.268 89.4162 634.97 92.9372 632.418 93.075C628.159 93.3049 628.566 84.4925 628.566 81.8491C628.566 79.1614 628.509 78.1631 630.492 76.2361C632.548 74.2386 634.469 74.697 630.107 73.2841C624.694 71.5312 618.578 69.1263 612.776 69.1263C609.86 69.1263 608.982 73.279 608.496 75.4045C608.344 76.0687 602.559 71.2983 601.607 70.7894C596.544 68.0839 594.986 65.7041 596.172 60.5198C597.064 56.6181 590.802 53.4699 589.282 57.9004" stroke="white" stroke-width="3.83489" stroke-linecap="round"/>
<path d="M561.552 71.3713C561.552 78.0493 563.093 84.7578 563.093 91.2038C563.093 96.0735 558.942 97.5652 554.235 97.5652C552.778 97.5652 551.04 97.8318 549.613 97.5236C548.992 97.3895 546.847 95.7678 546.318 96.2347C543.98 98.3001 544.606 102.479 544.606 105.215C544.606 108.417 547.687 109.288 547.687 112.533C547.687 119.166 542.539 130.094 552.138 133.322C556.063 134.642 552.443 134.179 550.426 134.237C546.637 134.345 543.112 136.969 539.3 136.44C536.259 136.018 532.743 132.104 532.239 129.414C531.557 125.769 526.973 131.961 526.89 133.488C526.718 136.659 522.737 135.788 520.214 135.733C514.44 135.609 512.059 131.135 507.205 129.788C505.207 129.233 503.356 123.57 503.054 121.514C502.619 118.557 501.181 119.424 498.39 118.52" stroke="white" stroke-width="3.83489" stroke-linecap="round"/>
<path d="M794.946 96.0689C790.122 96.0689 792.903 100.351 790.709 102.056C786.97 104.963 794.833 107.295 796.487 107.295C798.271 107.295 799.9 107.032 801.493 106.172C802.488 105.635 803.436 105.984 804.489 105.756C805.287 105.584 804.636 104.552 805.388 104.343C806.413 104.058 807.401 102.677 808.084 101.682C809.659 99.3851 813.998 97.6736 816.514 96.8589C822.774 94.8313 818.964 90.5651 814.545 88.4186C811.764 87.0677 807.357 87.8365 804.189 87.8365C800.452 87.8365 798.262 88.1125 795.887 90.9964C794.776 92.3467 792.635 96.5686 792.635 98.3141" stroke="white" stroke-width="3.83489" stroke-linecap="round"/>
<path d="M694.04 230.781C697.916 230.781 705.143 234.784 706.364 238.639C707.558 242.408 707.314 246.428 706.193 250.239C705.465 252.712 702.122 253.054 701.143 255.062C698.903 259.657 707.476 265.704 709.873 269.364C713.633 275.105 711.703 285.964 711.927 292.149C712.037 295.185 711.504 320.157 712.355 320.422C716.485 321.706 721.209 322.085 725.621 322.085C728.097 322.085 729.864 321.372 731.612 319.673C734.047 317.307 739.389 324.097 740.256 325.993C741.651 329.043 742.826 332.05 739.828 334.433C738.725 335.31 733.328 338.646 734.95 340.379C735.999 341.5 739.947 342.997 740.213 344.163C740.736 346.45 743.939 346.774 746.033 347.904C748.167 349.056 747.959 350.535 747.959 352.769C747.959 357.163 747.617 358.289 743.337 360.253C740.488 361.56 736.726 360.775 739.614 365.159C742.256 369.17 746.758 372.282 749.885 375.928C751.205 377.467 747.398 379.811 746.59 380.626C744.362 382.874 743.337 387.205 743.337 390.189C743.337 393.03 742.567 395.675 742.567 398.504C742.567 402.617 744.655 408.805 749.157 410.396C752.335 411.518 757.373 417.659 752.581 420.125C750.912 420.983 743.089 422.978 742.61 425.072C742.308 426.391 744.387 429.25 743.166 430.436C740.868 432.668 736.188 428.108 734.864 426.86C732.858 424.968 730.806 423.867 728.103 423.867C726.905 423.867 725.706 423.867 724.508 423.867C723.138 423.867 722.89 422.466 721.598 422.37C718.315 422.125 710.028 420.608 707.562 418.212C703.242 414.014 701.892 409.227 698.661 404.242C696.242 400.508 695.412 397.458 691.729 394.263C689.112 391.994 687.201 389.219 684.197 387.362C683.036 386.644 680.872 385.852 681.416 384.16C682.96 379.358 685.13 373.816 688.819 370.148C690.253 368.722 695.331 366.177 695.58 363.995C696.12 359.273 692.003 356.865 688.733 354.266C684.534 350.928 681.791 347.883 676.323 346.408C667.973 344.154 669.853 356.327 663.229 356.511C660.132 356.597 657.34 358.008 654.37 358.008C651.683 358.008 651.138 363.695 648.936 361.75C641.05 354.785 629.553 353.106 624.372 343.04C623.221 340.803 623.046 338.496 621.805 336.304C617.612 328.898 619.543 345.861 613.931 343.456C604.51 339.418 595.356 334.016 586.115 329.527C579.472 326.3 573.007 322.761 566.516 319.258C563.67 317.721 560.355 314.696 556.93 314.601C555.854 314.571 551.79 314.023 550.939 314.767C547.881 317.442 547.687 323.046 547.687 326.908C547.687 329.363 542.056 328.072 539.556 328.072C534.494 328.072 532.554 322.53 528.43 320.422C526.41 319.389 524.031 319.901 521.84 319.05C516.637 317.028 513.358 311.337 509.986 307.242C502.842 298.564 493.084 304.345 484.524 307.117" stroke="white" stroke-width="3.83489" stroke-linecap="round"/>
<path d="M690.959 232.277C686.552 227.995 684.289 222.5 680.132 218.057C674.153 211.667 668.494 205.659 663.272 198.682C659.486 193.625 653.266 184.587 645.769 185.17C638.92 185.702 632.425 188.122 625.485 188.122C617.772 188.122 612.231 179.155 607.94 173.736C605.901 171.16 605.16 168.046 603.147 165.503C599.063 160.344 590.76 161.593 585.602 163.757C583.101 164.807 580.718 166.761 578.327 168.081C575.741 169.509 572.966 169.395 570.197 170.326C565.175 172.015 561.379 167.931 556.546 167.208C553.013 166.68 549.285 169.116 545.762 169.37C542.707 169.59 539.583 169.412 536.518 169.412C534.366 169.412 532.109 169.601 529.971 169.37C527.07 169.057 524.585 166.037 522.226 164.547C518.112 161.949 514.31 158.993 510.329 156.315C507.302 154.279 504.562 152.34 502.412 149.787C500.15 147.101 501.088 143.572 496.678 142.303C493.129 141.281 490.399 145.92 487.606 147.126C484.43 148.498 480.964 146.96 477.592 146.96" stroke="white" stroke-width="3.83489" stroke-linecap="round"/>
<path d="M778.379 220.506C778.379 280.401 735.405 335.012 665.081 374.758C594.816 414.471 497.616 439.095 390.148 439.095C282.68 439.095 185.481 414.471 115.215 374.758C44.8915 335.012 1.91744 280.401 1.91744 220.506C1.91744 160.611 44.8915 106 115.215 66.254C185.481 26.541 282.68 1.91744 390.148 1.91744C497.616 1.91744 594.816 26.541 665.081 66.254C735.405 106 778.379 160.611 778.379 220.506Z" fill="black" stroke="white" stroke-width="3.83489"/>
<path d="M258.604 15.8538C150.479 89.3558 -0.896699 274.12 258.604 425.159" stroke="white" stroke-width="3.83489"/>
<path d="M520.197 15.8538C628.323 89.3558 781.193 274.12 521.692 425.159" stroke="white" stroke-width="3.83489"/>
<path d="M388.653 2.88257V436.688" stroke="white" stroke-width="3.83489"/>
<path d="M327.366 5.76514C281.524 89.836 215.852 298.044 325.871 435.247" stroke="white" stroke-width="3.83489"/>
<path d="M451.436 5.76514C497.277 89.836 558.465 298.044 448.446 435.247" stroke="white" stroke-width="3.83489"/>
<path d="M146.492 51.8843L633.803 53.3255" stroke="white" stroke-width="3.83489"/>
<path d="M47.834 119.621L735.451 121.068" stroke="white" stroke-width="3.83489"/>
<path d="M2.98975 213.3H775.812" stroke="white" stroke-width="3.83489"/>
<path d="M29.8965 299.773L747.409 302.656" stroke="white" stroke-width="3.83489"/>
<path d="M146.492 389.128H633.804" stroke="white" stroke-width="3.83489"/>
</svg>
