<svg width="1440" height="838" viewBox="0 0 1440 838" fill="none" xmlns="http://www.w3.org/2000/svg">
<g clip-path="url(#clip0_47_2642)">
<g clip-path="url(#clip1_47_2642)">
<line x1="404.581" y1="-23.0091" x2="404.581" y2="847.51" stroke="black" stroke-width="3.83489"/>
<line x1="166.818" y1="-36.4313" x2="166.818" y2="847.51" stroke="black" stroke-width="3.83489"/>
<line x1="17.2573" y1="-28.7616" x2="17.2573" y2="855.18" stroke="black" stroke-width="3.83489"/>
<line x1="262.689" y1="-46.0184" x2="262.689" y2="824.501" stroke="black" stroke-width="3.83489"/>
<line x1="261.291" y1="821.272" x2="405.099" y2="667.876" stroke="black" stroke-width="3.83489"/>
<line x1="263.209" y1="545.16" x2="407.017" y2="391.764" stroke="black" stroke-width="3.83489"/>
<line x1="263.209" y1="272.883" x2="407.017" y2="119.488" stroke="black" stroke-width="3.83489"/>
<line x1="19.6934" y1="276.718" x2="163.502" y2="123.322" stroke="black" stroke-width="3.83489"/>
<line x1="18.6952" y1="544.186" x2="163.527" y2="395.572" stroke="black" stroke-width="3.83489"/>
<line x1="17.8365" y1="821.21" x2="169.314" y2="673.567" stroke="black" stroke-width="3.83489"/>
<line x1="262.048" y1="541.205" x2="403.939" y2="667.757" stroke="black" stroke-width="3.83489"/>
<line x1="262.048" y1="268.928" x2="403.939" y2="395.48" stroke="black" stroke-width="3.83489"/>
<line x1="26.203" y1="276.598" x2="168.094" y2="403.15" stroke="black" stroke-width="3.83489"/>
<line x1="24.286" y1="546.958" x2="166.177" y2="673.509" stroke="black" stroke-width="3.83489"/>
<line x1="262.048" y1="-7.18318" x2="403.939" y2="119.368" stroke="black" stroke-width="3.83489"/>
<line x1="24.286" y1="-5.26576" x2="166.177" y2="121.286" stroke="black" stroke-width="3.83489"/>
<rect x="256.938" y="807.244" width="13.4221" height="11.5047" fill="black"/>
<rect x="398.829" y="663.435" width="13.4221" height="11.5047" fill="black"/>
<rect x="256.938" y="536.884" width="13.4221" height="11.5047" fill="black"/>
<rect x="398.829" y="389.241" width="13.4221" height="11.5047" fill="black"/>
<rect x="256.938" y="264.607" width="13.4221" height="11.5047" fill="black"/>
<rect x="159.148" y="116.964" width="13.4221" height="11.5047" fill="black"/>
<rect x="11.5049" y="270.359" width="13.4221" height="11.5047" fill="black"/>
<rect x="161.065" y="393.076" width="13.4221" height="11.5047" fill="black"/>
<rect x="11.5049" y="536.884" width="13.4221" height="11.5047" fill="black"/>
<rect x="159.148" y="667.27" width="13.4221" height="11.5047" fill="black"/>
<rect x="398.829" y="115.047" width="13.4221" height="11.5047" fill="black"/>
<rect x="256.938" y="-11.5046" width="13.4221" height="11.5047" fill="black"/>
<line x1="262.69" y1="544.554" x2="15.3397" y2="544.554" stroke="black" stroke-width="3.83489"/>
<line x1="266.525" y1="820.666" x2="19.1747" y2="820.666" stroke="black" stroke-width="3.83489"/>
<line x1="264.638" y1="272.277" x2="17.2884" y2="276.172" stroke="black" stroke-width="3.83489"/>
<line x1="402.663" y1="122.716" x2="161.065" y2="122.716" stroke="black" stroke-width="3.83489"/>
<line x1="402.663" y1="396.911" x2="164.9" y2="396.911" stroke="black" stroke-width="3.83489"/>
<line x1="404.581" y1="673.023" x2="162.983" y2="673.023" stroke="black" stroke-width="3.83489"/>
<line x1="403.009" y1="395.888" x2="21.4379" y2="543.531" stroke="black" stroke-width="1.91744"/>
<line x1="403.013" y1="670.081" x2="21.4418" y2="819.641" stroke="black" stroke-width="1.91744"/>
<line x1="408.78" y1="115.933" x2="21.4563" y2="275.081" stroke="black" stroke-width="1.91744"/>
<line x1="404.967" y1="-154.436" x2="17.6435" y2="16.2169" stroke="black" stroke-width="1.91744"/>
<rect x="256.938" y="763.142" width="13.4221" height="3.83489" fill="black"/>
<rect x="256.938" y="707.537" width="13.4221" height="3.83489" fill="black"/>
<rect x="256.938" y="625.087" width="13.4221" height="3.83489" fill="black"/>
<rect x="398.829" y="644.261" width="13.4221" height="3.83489" fill="black"/>
<rect x="398.829" y="515.792" width="13.4221" height="3.83489" fill="black"/>
<rect x="256.938" y="421.838" width="13.4221" height="3.83489" fill="black"/>
<rect x="398.829" y="462.104" width="13.4221" height="3.83489" fill="black"/>
<rect x="398.829" y="406.498" width="13.4221" height="3.83489" fill="black"/>
<rect x="256.938" y="373.902" width="13.4221" height="3.83489" fill="black"/>
<rect x="256.938" y="329.8" width="13.4221" height="3.83489" fill="black"/>
<rect x="398.829" y="291.451" width="13.4221" height="3.83489" fill="black"/>
<rect x="398.829" y="237.763" width="13.4221" height="3.83489" fill="black"/>
<rect x="256.938" y="209.001" width="13.4221" height="3.83489" fill="black"/>
<rect x="161.065" y="260.772" width="13.4221" height="3.83489" fill="black"/>
<rect x="161.065" y="331.718" width="13.4221" height="3.83489" fill="black"/>
<rect x="162.983" y="381.571" width="13.4221" height="3.83489" fill="black"/>
<rect x="161.065" y="460.187" width="13.4221" height="3.83489" fill="black"/>
<rect x="161.065" y="525.38" width="13.4221" height="3.83489" fill="black"/>
<rect x="161.065" y="600.16" width="13.4221" height="3.83489" fill="black"/>
<rect x="161.065" y="655.766" width="13.4221" height="3.83489" fill="black"/>
<rect x="161.065" y="730.546" width="13.4221" height="3.83489" fill="black"/>
<rect x="161.065" y="795.739" width="13.4221" height="3.83489" fill="black"/>
<rect x="256.938" y="153.396" width="13.4221" height="3.83489" fill="black"/>
<rect x="398.829" y="130.386" width="13.4221" height="3.83489" fill="black"/>
<rect x="398.829" y="59.4409" width="13.4221" height="3.83489" fill="black"/>
<rect x="161.065" y="97.7896" width="13.4221" height="3.83489" fill="black"/>
<rect x="398.829" y="6.10352e-05" width="13.4221" height="3.83489" fill="black"/>
<rect x="161.065" y="13.4222" width="13.4221" height="3.83489" fill="black"/>
<rect x="11.5049" y="46.0187" width="13.4221" height="3.83489" fill="black"/>
<rect x="11.5049" y="111.212" width="13.4221" height="3.83489" fill="black"/>
<rect x="11.5049" y="161.065" width="13.4221" height="3.83489" fill="black"/>
<rect x="11.5049" y="224.341" width="13.4221" height="3.83489" fill="black"/>
<path d="M11.5049 293.369H24.927V289.534H11.5049V293.369Z" fill="black"/>
<rect x="11.5049" y="348.975" width="13.4221" height="3.83489" fill="black"/>
<rect x="11.5049" y="410.333" width="13.4221" height="3.83489" fill="black"/>
<rect x="11.5049" y="479.361" width="13.4221" height="3.83489" fill="black"/>
<rect x="11.5049" y="565.646" width="13.4221" height="3.83489" fill="black"/>
<rect x="11.5049" y="607.83" width="13.4221" height="3.83489" fill="black"/>
<rect x="11.5049" y="661.518" width="13.4221" height="3.83489" fill="black"/>
<rect x="11.5049" y="728.628" width="13.4221" height="3.83489" fill="black"/>
<rect x="11.5049" y="797.656" width="13.4221" height="3.83489" fill="black"/>
<rect x="256.938" y="32.5966" width="13.4221" height="3.83489" fill="black"/>
<rect x="256.938" y="103.542" width="13.4221" height="3.83489" fill="black"/>
<rect x="161.065" y="185.992" width="13.4221" height="3.83489" fill="black"/>
<rect x="398.829" y="185.992" width="13.4221" height="3.83489" fill="black"/>
<rect x="256.938" y="285.699" width="13.4221" height="3.83489" fill="black"/>
<rect x="398.829" y="343.223" width="13.4221" height="3.83489" fill="black"/>
<rect x="256.938" y="492.783" width="13.4221" height="3.83489" fill="black"/>
<rect x="256.938" y="577.151" width="13.4221" height="3.83489" fill="black"/>
<rect x="398.829" y="565.646" width="13.4221" height="3.83489" fill="black"/>
<line x1="77.6573" y1="-70.9321" x2="75.7399" y2="889.707" stroke="black" stroke-width="13.4221"/>
<line x1="1296.19" y1="-11.4857" x2="1294.27" y2="949.154" stroke="black" stroke-width="19.1744"/>
<ellipse cx="77.657" cy="69.9866" rx="23.968" ry="10.5459" fill="black"/>
<ellipse cx="1295.23" cy="813.955" rx="35.4727" ry="14.3808" fill="black"/>
<ellipse cx="1297.15" cy="497.577" rx="35.4727" ry="14.3808" fill="black"/>
<ellipse cx="1293.32" cy="209.96" rx="35.4727" ry="14.3808" fill="black"/>
<ellipse cx="77.657" cy="234.887" rx="23.968" ry="10.5459" fill="black"/>
<ellipse cx="77.657" cy="428.549" rx="23.968" ry="10.5459" fill="black"/>
<ellipse cx="77.657" cy="612.623" rx="23.968" ry="10.5459" fill="black"/>
<ellipse cx="75.7395" cy="767.936" rx="23.968" ry="10.5459" fill="black"/>
<circle cx="93.9555" cy="67.1104" r="1.91744" fill="white"/>
<circle cx="61.3588" cy="72.8628" r="1.91744" fill="white"/>
<circle cx="95.873" cy="233.928" r="1.91744" fill="white"/>
<circle cx="61.3588" cy="237.763" r="1.91744" fill="white"/>
<circle cx="95.873" cy="427.59" r="1.91744" fill="white"/>
<circle cx="61.3588" cy="431.425" r="1.91744" fill="white"/>
<circle cx="95.873" cy="609.747" r="1.91744" fill="white"/>
<circle cx="61.3588" cy="615.499" r="1.91744" fill="white"/>
<circle cx="93.9555" cy="766.977" r="1.91744" fill="white"/>
<circle cx="61.3588" cy="770.812" r="1.91744" fill="white"/>
<circle cx="1273.18" cy="811.078" r="3.83489" fill="white"/>
<circle cx="1317.28" cy="816.831" r="3.83489" fill="white"/>
<circle cx="1273.18" cy="494.7" r="3.83489" fill="white"/>
<circle cx="1319.2" cy="500.453" r="3.83489" fill="white"/>
<circle cx="1269.35" cy="207.084" r="3.83489" fill="white"/>
<rect x="1267.43" y="692.197" width="61.3582" height="69.028" fill="black"/>
<rect x="1255.93" y="703.702" width="15.3396" height="44.1012" fill="black"/>
<rect x="1323.04" y="703.702" width="15.3396" height="44.1012" fill="black"/>
<line x1="1326.69" y1="725.515" x2="1457.07" y2="779.204" stroke="black" stroke-width="19.1744"/>
<line x1="1307.2" y1="407.099" x2="1456.76" y2="462.705" stroke="black" stroke-width="19.1744"/>
<line x1="1299.53" y1="69.6288" x2="1449.09" y2="125.235" stroke="black" stroke-width="19.1744"/>
<line x1="1323.02" y1="719.735" x2="1464.02" y2="719.735" stroke="black" stroke-width="17.257"/>
<line x1="1311.53" y1="399.786" x2="1452.54" y2="399.786" stroke="black" stroke-width="17.257"/>
<line x1="1298.11" y1="66.1517" x2="1439.12" y2="66.1517" stroke="black" stroke-width="17.257"/>
<line x1="1041.17" y1="396.911" x2="1041.17" y2="868.602" stroke="black" stroke-width="3.83489"/>
<line x1="1110.2" y1="504.287" x2="1110.2" y2="975.978" stroke="black" stroke-width="3.83489"/>
<line x1="1503.27" y1="569.615" x2="1031.58" y2="569.615" stroke="black" stroke-width="3.83489"/>
<line x1="1503.28" y1="736.298" x2="1031.59" y2="736.298" stroke="black" stroke-width="3.83489"/>
<line x1="1585.73" y1="600.16" x2="1114.03" y2="600.16" stroke="black" stroke-width="3.83489"/>
<line x1="1585.73" y1="763.142" x2="1114.03" y2="763.142" stroke="black" stroke-width="3.83489"/>
<line x1="1041.06" y1="566.919" x2="1110.09" y2="760.581" stroke="black" stroke-width="3.83489"/>
<line x1="1041.03" y1="735.565" x2="1110.05" y2="902.383" stroke="black" stroke-width="3.83489"/>
<rect x="1035.42" y="563.728" width="11.5047" height="11.5047" fill="black"/>
<rect x="1104.45" y="592.49" width="11.5047" height="11.5047" fill="black"/>
<rect x="1104.45" y="755.472" width="11.5047" height="11.5047" fill="black"/>
<rect x="1035.42" y="730.546" width="11.5047" height="11.5047" fill="black"/>
<line x1="1041.93" y1="567.718" x2="1109.04" y2="596.48" stroke="black" stroke-width="3.83489"/>
<line x1="1043.85" y1="736.453" x2="1110.96" y2="765.215" stroke="black" stroke-width="3.83489"/>
<rect x="1035.42" y="414.168" width="11.5047" height="3.83489" fill="black"/>
<rect x="1104.45" y="542.636" width="11.5047" height="3.83489" fill="black"/>
<rect x="1104.45" y="617.417" width="11.5047" height="3.83489" fill="black"/>
<rect x="1104.45" y="686.445" width="11.5047" height="3.83489" fill="black"/>
<rect x="1104.45" y="799.574" width="11.5047" height="3.83489" fill="black"/>
<rect x="1035.42" y="496.618" width="11.5047" height="3.83489" fill="black"/>
<rect x="1035.42" y="602.077" width="11.5047" height="3.83489" fill="black"/>
<rect x="1035.42" y="676.857" width="11.5047" height="3.83489" fill="black"/>
<rect x="1035.42" y="770.812" width="11.5047" height="3.83489" fill="black"/>
</g>
</g>
<defs>
<clipPath id="clip0_47_2642">
<rect width="1440" height="837.923" fill="white"/>
</clipPath>
<clipPath id="clip1_47_2642">
<rect width="1574.22" height="1131.29" fill="white" transform="translate(11.5049 -155.313)"/>
</clipPath>
</defs>
</svg>
